<?xml version="1.0" encoding="utf-8"?>
<!-- Generator: Adobe Illustrator 28.2.0, SVG Export Plug-In . SVG Version: 6.00 Build 0)  -->
<svg version="1.1" xmlns="http://www.w3.org/2000/svg" xmlns:xlink="http://www.w3.org/1999/xlink" x="0px" y="0px"
	 viewBox="0 0 681.5 243.5" style="enable-background:new 0 0 681.5 243.5;" xml:space="preserve">
<style type="text/css">
	.st0{fill:#9A9592;}
	.st1{fill:#A3A09D;}
	.st2{fill:#9D9C9D;}
	.st3{fill:#918D8A;}
	.st4{fill:#91877F;}
	.st5{fill:#FFFFFF;}
	.st6{fill:none;}
	.st7{fill-rule:evenodd;clip-rule:evenodd;fill:#FFFFFF;}
	.st8{fill:#892312;}
	.st9{fill:#606060;}
	.st10{opacity:0.68;}
</style>
<g id="Слой_1">
</g>
<g id="Слой_4">
</g>
<g id="Слой_2">
</g>
<g id="Слой_8">
</g>
<g id="_x31_">
</g>
<g id="Слой_5">
</g>
<g id="Слой_6">
</g>
<g id="Слой_9">
</g>
<g id="Слой_10">
	<g>
		<g>
			<path class="st5" d="M236.7,160.6h13.7v3h-8.6v8.3h-5V160.6z"/>
			<path class="st5" d="M265,170.5c-0.5,0.5-1.3,0.9-2.4,1.2c-1.1,0.2-2.5,0.3-4.1,0.3c-1.2,0-2.3-0.1-3.1-0.2
				c-0.9-0.1-1.6-0.3-2.1-0.6c-0.5-0.3-0.9-0.7-1.1-1.2c-0.2-0.5-0.4-1.1-0.4-1.8c0-0.7,0.1-1.4,0.4-1.8c0.3-0.5,0.7-0.9,1.2-1.1
				s1.3-0.5,2.2-0.6c0.9-0.1,2-0.2,3.3-0.2c1.5,0,2.7,0.1,3.7,0.2c1,0.1,1.8,0.4,2.5,0.7v-1.2c0-0.8-0.7-1.2-2-1.2H259
				c-1,0-1.5,0.3-1.5,0.9h-5.1v-0.1c0-1.2,0.6-2.1,1.7-2.6c1.2-0.5,2.9-0.7,5.4-0.7h4.9c1.9,0,3.3,0.3,4.2,0.9
				c0.9,0.6,1.4,1.5,1.4,2.8v7.7h-5V170.5z M262.5,169.2c0.9,0,1.5-0.1,1.9-0.2c0.4-0.2,0.6-0.5,0.6-0.9c0-0.5-0.2-0.8-0.6-0.9
				c-0.4-0.1-1-0.2-1.9-0.2h-3.1c-0.9,0-1.5,0.1-1.9,0.2c-0.4,0.2-0.6,0.5-0.6,0.9c0,0.5,0.2,0.7,0.6,0.9c0.4,0.1,1,0.2,1.9,0.2
				H262.5z"/>
			<path class="st5" d="M279.6,172c-1.2,0-2.2-0.1-3-0.2c-0.8-0.2-1.5-0.4-2.1-0.7c-0.5-0.3-0.9-0.8-1.2-1.3
				c-0.3-0.5-0.4-1.2-0.4-1.9v-3.1c0-0.8,0.1-1.5,0.3-2c0.2-0.6,0.6-1,1.1-1.4c0.5-0.3,1.2-0.6,2.1-0.7c0.9-0.2,1.9-0.2,3.2-0.2h4.8
				c2.3,0,4,0.3,5.1,0.9c1.1,0.6,1.6,1.6,1.6,3c0,0.3,0,0.6-0.1,0.9h-4.8v-0.1c0-0.6-0.2-1-0.7-1.3c-0.4-0.2-1.1-0.4-2.1-0.4H281
				c-1.1,0-1.9,0.1-2.4,0.4c-0.4,0.3-0.7,0.8-0.7,1.6v1.4c0,0.7,0.2,1.2,0.7,1.5c0.5,0.3,1.2,0.5,2.3,0.5h2.2c0.6,0,1,0,1.4-0.1
				c0.4,0,0.7-0.1,1-0.3c0.2-0.1,0.4-0.3,0.5-0.6c0.1-0.2,0.2-0.6,0.2-1h5c0,0.1,0,0.2,0,0.3c0,0.1,0,0.2,0,0.3c0,0.8-0.1,1.4-0.4,2
				c-0.3,0.5-0.7,1-1.2,1.3c-0.6,0.3-1.3,0.6-2.1,0.7c-0.9,0.1-1.9,0.2-3.1,0.2H279.6z"/>
			<path class="st5" d="M298.7,163.6h-5.5v-3h16v3h-5.5v8.3h-5V163.6z"/>
			<path class="st5" d="M311.7,160.6h5v2.1c0.1-0.9,0.7-1.4,1.7-1.7c1-0.3,2.5-0.5,4.6-0.5c1.3,0,2.4,0.1,3.4,0.2
				c0.9,0.1,1.7,0.3,2.3,0.6c0.6,0.3,1,0.7,1.3,1.2c0.3,0.5,0.4,1.1,0.4,1.8v3.7c0,1.4-0.6,2.4-1.7,3c-1.2,0.6-3,0.9-5.6,0.9
				c-0.9,0-1.8,0-2.5-0.1c-0.7,0-1.3-0.2-1.9-0.3c-0.5-0.2-0.9-0.4-1.3-0.6c-0.3-0.3-0.6-0.6-0.7-1v5.9h-5V160.6z M322.2,168.8
				c1.1,0,1.9-0.1,2.4-0.4c0.5-0.3,0.7-0.8,0.7-1.5v-1.4c0-0.7-0.3-1.2-0.8-1.5c-0.5-0.3-1.3-0.4-2.4-0.4h-2.3c-1.1,0-2,0.1-2.5,0.4
				c-0.5,0.3-0.7,0.8-0.7,1.5v1.4c0,0.8,0.2,1.3,0.7,1.6s1.3,0.4,2.5,0.4H322.2z"/>
			<path class="st5" d="M340.3,172c-1.2,0-2.2-0.1-3.1-0.2c-0.9-0.1-1.6-0.4-2.2-0.7c-0.6-0.3-1-0.7-1.3-1.3c-0.3-0.5-0.4-1.2-0.4-2
				v-3.1c0-0.8,0.1-1.5,0.4-2c0.2-0.6,0.6-1,1.2-1.4c0.5-0.3,1.3-0.6,2.1-0.8c0.9-0.2,2-0.2,3.3-0.2h5.1c1.2,0,2.3,0.1,3.2,0.2
				c0.9,0.2,1.6,0.4,2.2,0.7c0.6,0.3,1,0.8,1.2,1.3c0.3,0.5,0.4,1.2,0.4,1.9v3.1c0,0.8-0.1,1.5-0.4,2c-0.3,0.5-0.7,1-1.3,1.3
				c-0.6,0.3-1.3,0.6-2.2,0.7c-0.9,0.1-1.9,0.2-3.1,0.2H340.3z M344,169c1.1,0,2-0.1,2.5-0.4c0.5-0.3,0.8-0.8,0.8-1.6v-1.5
				c0-0.7-0.3-1.3-0.8-1.6c-0.5-0.3-1.3-0.4-2.5-0.4h-2.4c-0.6,0-1.1,0-1.5,0.1c-0.4,0.1-0.8,0.2-1,0.3c-0.3,0.2-0.4,0.4-0.6,0.6
				c-0.1,0.3-0.2,0.6-0.2,1v1.4c0,0.8,0.3,1.3,0.8,1.6c0.5,0.3,1.4,0.4,2.5,0.4H344z"/>
			<path class="st5" d="M371.1,164.1v4.1h-9v-4.1H371.1z"/>
			<path class="st5" d="M388.1,172c-1.2,0-2.2-0.1-3.1-0.2c-0.9-0.1-1.6-0.4-2.2-0.7c-0.6-0.3-1-0.7-1.3-1.3c-0.3-0.5-0.4-1.2-0.4-2
				v-3.2c0-1.5,0.1-2.8,0.2-3.9c0.2-1,0.5-1.9,0.9-2.6c0.5-0.7,1.1-1.2,2-1.6c0.9-0.4,2-0.7,3.5-0.9l4.8-0.8
				c0.7-0.1,1.3-0.3,1.6-0.4c0.3-0.2,0.5-0.5,0.5-1h4.5c0,1.3-0.4,2.4-1.1,3.1c-0.7,0.7-1.7,1.2-3,1.4l-5.7,0.9
				c-0.9,0.1-1.5,0.3-2,0.5c-0.5,0.2-0.8,0.4-1.1,0.7c-0.2,0.3-0.4,0.6-0.4,1.1c0,0.4-0.1,1-0.1,1.6c0.1-0.9,0.7-1.5,1.7-1.8
				c1-0.3,2.6-0.5,4.6-0.5c1.3,0,2.5,0.1,3.5,0.2c1,0.1,1.8,0.3,2.4,0.7s1.1,0.8,1.4,1.3c0.3,0.5,0.5,1.2,0.5,2.1v3.1
				c0,0.8-0.1,1.5-0.4,2c-0.3,0.5-0.7,1-1.3,1.3c-0.6,0.3-1.3,0.6-2.2,0.7c-0.9,0.1-1.9,0.2-3.1,0.2H388.1z M394.8,165.5
				c0-0.7-0.3-1.3-0.8-1.6c-0.5-0.3-1.3-0.4-2.5-0.4h-2.1c-0.6,0-1.1,0-1.6,0.1c-0.4,0.1-0.8,0.2-1,0.3c-0.3,0.2-0.5,0.4-0.6,0.6
				c-0.1,0.3-0.2,0.6-0.2,1v1.4c0,0.8,0.3,1.3,0.8,1.6c0.5,0.3,1.4,0.4,2.5,0.4h2.1c1.1,0,2-0.1,2.5-0.4c0.5-0.3,0.8-0.8,0.8-1.6
				V165.5z"/>
			<path class="st5" d="M415.5,170.5c-0.5,0.5-1.3,0.9-2.4,1.2c-1.1,0.2-2.5,0.3-4.1,0.3c-1.2,0-2.3-0.1-3.1-0.2
				c-0.9-0.1-1.6-0.3-2.1-0.6c-0.5-0.3-0.9-0.7-1.1-1.2c-0.2-0.5-0.4-1.1-0.4-1.8c0-0.7,0.1-1.4,0.4-1.8c0.3-0.5,0.7-0.9,1.2-1.1
				s1.3-0.5,2.2-0.6c0.9-0.1,2-0.2,3.3-0.2c1.5,0,2.7,0.1,3.7,0.2c1,0.1,1.8,0.4,2.5,0.7v-1.2c0-0.8-0.7-1.2-2-1.2h-4.1
				c-1,0-1.5,0.3-1.5,0.9h-5.1v-0.1c0-1.2,0.6-2.1,1.7-2.6c1.2-0.5,2.9-0.7,5.4-0.7h4.9c1.9,0,3.3,0.3,4.2,0.9
				c0.9,0.6,1.4,1.5,1.4,2.8v7.7h-5V170.5z M412.9,169.2c0.9,0,1.5-0.1,1.9-0.2c0.4-0.2,0.6-0.5,0.6-0.9c0-0.5-0.2-0.8-0.6-0.9
				c-0.4-0.1-1-0.2-1.9-0.2h-3.1c-0.9,0-1.5,0.1-1.9,0.2c-0.4,0.2-0.6,0.5-0.6,0.9c0,0.5,0.2,0.7,0.6,0.9c0.4,0.1,1,0.2,1.9,0.2
				H412.9z"/>
			<path class="st5" d="M423.8,160.6h5v2.1c0.1-0.9,0.7-1.4,1.7-1.7c1-0.3,2.5-0.5,4.6-0.5c1.3,0,2.4,0.1,3.4,0.2
				c0.9,0.1,1.7,0.3,2.3,0.6s1,0.7,1.3,1.2s0.4,1.1,0.4,1.8v3.7c0,1.4-0.6,2.4-1.7,3c-1.2,0.6-3,0.9-5.6,0.9c-0.9,0-1.8,0-2.5-0.1
				c-0.7,0-1.3-0.2-1.9-0.3c-0.5-0.2-0.9-0.4-1.3-0.6c-0.3-0.3-0.6-0.6-0.7-1v5.9h-5V160.6z M434.3,168.8c1.1,0,1.9-0.1,2.4-0.4
				c0.5-0.3,0.7-0.8,0.7-1.5v-1.4c0-0.7-0.3-1.2-0.8-1.5c-0.5-0.3-1.3-0.4-2.4-0.4H432c-1.1,0-2,0.1-2.5,0.4
				c-0.5,0.3-0.7,0.8-0.7,1.5v1.4c0,0.8,0.2,1.3,0.7,1.6c0.5,0.3,1.3,0.4,2.5,0.4H434.3z"/>
		</g>
		<g>
			<path class="st5" d="M69.1,105.7c-0.2,0.3-0.4,0.7-0.6,1v2.4c0.3,0.1,0.5,0.2,0.9,0.3c-0.3,0.5-0.5,1-0.7,1.3
				c0.4,1.1,1.2,2.3,1,3.2c-0.3,1.2,0.4,2,0.2,3.3c0.9-0.7,1.5-1.1,2.1-1.5c-0.2-0.1-0.3-0.2-0.5-0.4c0.2-0.1,0.3-0.1,0.5-0.2
				c0,0,0,0,0,0c0.4-0.3,0.7-0.6,1-0.8v-3.9c-0.4-0.4-0.7-0.7-0.9-0.9c0.1-0.4,0.2-0.8,0.6-1.7c0,0.1,0.1,0.1,0.1,0.2
				c0.1-0.3,0.2-0.5-0.1-0.3c0.1-0.3,0.3-0.7,0.4-1.1c-0.4,0.4-0.6,0.5-0.6,0.6c0,0.2,0.1,0.4,0.2,0.5c0,0.1-0.1,0.1-0.2,0.2
				c-0.4-0.6-0.8-1.2-1.2-1.7c0.5-0.5,0.9-0.9,1.2-1.1v-2.2c-0.4-0.7-0.9-1.3-1.1-1.9c-0.2-0.9,0.5-1.8,0-2.9
				c-0.1-0.3,0.4-0.9,0.5-1.3c-0.2-0.3-0.3-0.6-0.4-0.6c0.2-0.6,0.4-1,0.5-1.5c0.1,0.1,0.2,0.2,0.4,0.3c-0.1-0.7-0.1-1.3-0.2-2.1
				c-1.8,1.1-1.8,1.1-0.9,2.9h-0.8c-0.4,0.6-0.8,1.1-1.2,1.7c-0.1,0.1-0.1,0.2-0.1,0.4c0.3,0.3,0.7,0.6,1.1,0.9
				c-0.4,0.1-0.7,0.3-0.8,0.3c-0.4,0.8-0.8,1.5-1.1,2.2v1.6C68.7,103.9,68.9,104.8,69.1,105.7z M71.6,103.6c0.1,0,0.2,0,0.3,0
				c0,0.4,0,0.7,0,1.1c-0.1,0-0.2,0-0.3,0C71.6,104.4,71.6,104,71.6,103.6z"/>
			<path class="st5" d="M79.3,129.9c-0.4-0.8-1.3-2-1.4-3.2c-0.1-2-1.5-1.7-2.8-1.8c-0.9-1.3-1.7-2.5-2.6-3.8
				c-1.5-0.1-1.5-0.1-2.4-1.1c0.2-0.3,0.3-0.7,0.6-1.3c-0.9,0.4-1.4,0.6-2.1,0.9c-0.3-0.6-0.6-1.2-0.9-1.7v17.5c0,0.4,0.1,0.7,0.4,1
				c0.3,0.3,0.6,0.4,1,0.4h8.5c-0.5-0.6-1-1.2-1.5-1.8C77.9,133.8,79.1,132.3,79.3,129.9z"/>
			<path class="st5" d="M82.1,125c-1.3,0.7-1.3,0.7-1,2.5C82.1,126,82.1,126,82.1,125z"/>
			<path class="st5" d="M72.8,119.6c0.3-0.6,1.2-0.7,0.5-1.8C73.1,118.3,72.1,118.5,72.8,119.6z"/>
			<path class="st5" d="M131.2,70.3H72.5c0.1,0.7,0.1,1.4,0,2.1c-0.1,0.9-0.1,1.9,0.4,2.8c0.4,0.8-0.1,2.1,0.6,3
				c-1.1,1.2-0.2,2.2,0.4,3.3c0.7-0.1,1.4-0.3,2.3-0.5c0.1,0.2,0.4,0.4,0.8,0.8c-0.7,0.3-1.4,0.6-2.4,1c-0.1,0.1-0.5,0.5-0.9,0.9V88
				c0.5,0.3,1,0.6,1.4,0.9c-0.5,0.4-1.1,0.8-1.9,1.3c1.2,1.5,0.8,3.1,0.9,4.7c0.1,1.7,0.4,3.3,0.7,5.1c-0.5,0.4-0.9,0.7-1.2,1
				c-0.2,4.3,0.7,8.3,2,12.3c-0.6,0.6-0.6,1.5-0.1,2.3c0.2,0.4,0.5,0.7,0,1.1c-0.6,0.6,0.6,0.8,0.3,1.3c-0.3,0.5-0.5,1.1-0.8,1.6
				c1.3,1,2.5,1.6,4,1.5c0.8,0,1.4,0.1,1.5,0.6c-0.2,0.9-0.3,1.4-0.4,1.9c0.9,0.5,1.4-0.1,2.1-0.2c0.7-0.1,1.5,0.3,2.3,0.5
				c0.8-0.4,1.6-0.8,2.5-1.2c0.6,0.9,1.8,1.3,1.6,2c-1.1,1.1-1.8,1.8-2.6,2.6c-0.3-0.3-0.8-0.7-1.1-1h-1.9c0,2.6-1.6,4.8-1,7.5
				c-0.4,0.3-0.9,0.6-1.2,0.8c-0.1,1.3,0.2,2,1.4,2c0.6,0,1.2,0.1,1.8,0.4h5.8c0.4,0,0.7-0.1,1-0.4c0.3-0.3,0.4-0.6,0.4-1V130
				c-0.1-0.1-0.3-0.3-0.4-0.4c0.1-0.1,0.1-0.1,0.2-0.2c0.1,0.1,0.2,0.2,0.3,0.3v-6.1c0,0-0.1,0.1-0.1,0.1c-0.1-0.1-0.2-0.1-0.4-0.2
				c0.1-0.1,0.1-0.2,0.2-0.2c0.1,0,0.2,0.1,0.3,0.1V93c0-0.4,0.1-0.7,0.4-1c0.3-0.3,0.6-0.4,0.9-0.4h26.5c0.4,0,0.7,0.1,1,0.4
				c0.3,0.3,0.4,0.6,0.4,1v7.7h1.7c2.4-2.2,4.6-4.1,6.8-6.1c0.9-0.9,1.8-1.8,2.6-2.6c1.1-0.1,2-0.1,3-0.5c1.2-0.5,2.7-0.6,4.5-0.9
				c0.4-0.7,1.1-1.8,1.9-3c0.8-0.1,1.5-0.8,1.8-1.6c0.1-0.2,0.2-0.4,0.3-0.7v-9.7c-1.2-0.5-2.4-1.1-3.6-1.7
				C136.5,72.6,133.8,71.5,131.2,70.3z M75.7,105.7c-0.1,0-0.2,0-0.3,0c0-0.4,0-0.7,0-1.1c0.1,0,0.2,0,0.3,0
				C75.7,105,75.7,105.3,75.7,105.7z M78.3,99.1c-0.1-0.1-0.1-0.2-0.2-0.4c0,0,0.1-0.1,0.2-0.2c0.1,0.1,0.1,0.2,0.2,0.4
				C78.4,99,78.3,99,78.3,99.1z M79.7,109.3c-0.5-0.5-0.8-0.8-1-0.9c0.4-0.5,0.8-1,1.2-1.5c0.2,0.2,0.5,0.5,0.9,0.9
				C80.5,108.2,80.2,108.7,79.7,109.3z M81.3,75.8c-0.3,0.1-0.5,0.2-0.9,0.3c-0.6-0.9-0.1-1.9-0.3-2.8c0.5,0,0.7,0,1.2,0
				c-0.1,0.7-0.2,1.3-0.4,2.1C81,75.4,81.1,75.6,81.3,75.8z M86.4,107.8c0,0-0.1-0.1-0.2-0.2c0.1-0.1,0.2-0.1,0.4-0.2
				c0.1,0.1,0.1,0.1,0.2,0.2C86.6,107.7,86.5,107.8,86.4,107.8z M86.3,91.3c0-0.5,0-1,0-1.5c0.1,0,0.2,0,0.3,0
				c0.1,0.5,0.1,1,0.2,1.4C86.6,91.3,86.4,91.3,86.3,91.3z M84.6,132.6c0-0.1,0-0.2,0-0.3c0.3-0.1,0.6-0.1,0.9-0.2
				c0,0.2,0,0.3,0,0.5C85.2,132.6,84.9,132.6,84.6,132.6z M85.8,135.8c0-1-0.7-1.8,1-2.1C86.4,134.5,86.2,135,85.8,135.8z
				 M86.3,130.1c0,0,0.1-0.1,0.2-0.2c0.1,0.1,0.1,0.2,0.2,0.4c0,0-0.1,0.1-0.2,0.2C86.4,130.4,86.3,130.2,86.3,130.1z M85.8,129.7
				c-0.1-0.5-0.2-0.8-0.3-1.3c0.6,0,1.1,0,2,0C86.8,128.9,86.4,129.2,85.8,129.7z M89.7,135.4c-0.1-0.1-0.2-0.1-0.2-0.2
				c0-0.1,0.1-0.2,0.2-0.4c0.1,0.1,0.1,0.1,0.2,0.2C89.9,135.2,89.8,135.3,89.7,135.4z M90.4,88.5c-0.6,0.2-1.2,0.3-1.9,0.5
				c-0.2-1.1-0.5-2.3-0.8-3.6c0.6,0,1.1,0,1.6,0c-0.2,0.6-0.3,1.1-0.6,1.8c0.6,0.4,1.2,0.8,1.7,1.1C90.5,88.4,90.4,88.5,90.4,88.5z
				 M111.7,78.1c-0.1-0.1-0.2-0.1-0.4-0.2c0.1-0.1,0.1-0.2,0.2-0.2c0.1,0,0.2,0.1,0.4,0.2C111.8,77.9,111.8,78,111.7,78.1z
				 M114.2,88.5c0,0-0.1-0.1-0.2-0.2c0.1-0.1,0.2-0.1,0.4-0.2c0.1,0.1,0.1,0.1,0.2,0.2C114.5,88.4,114.4,88.5,114.2,88.5z
				 M121.4,72.7c-0.6-1,0.2-1.2,0.6-1.7C122.6,72,121.8,72.2,121.4,72.7z M128.1,77.6c-0.1,0-0.2,0-0.3,0c0-0.4,0-0.7,0-1.1
				c0.1,0,0.2,0,0.3,0C128.1,76.9,128.1,77.2,128.1,77.6z M128.6,78.7c-0.1-0.1-0.2-0.1-0.2-0.2c0-0.1,0.1-0.2,0.2-0.4
				c0.1,0.1,0.1,0.1,0.2,0.2C128.7,78.5,128.6,78.6,128.6,78.7z M129.6,78.1c-0.1-0.1-0.1-0.1-0.2-0.2c0.1-0.1,0.3-0.3,0.4-0.4
				c0.1-0.1,0.3-0.3,0.4-0.4c0.1,0.1,0.1,0.1,0.2,0.2c-0.1,0.1-0.3,0.3-0.4,0.4C129.9,77.8,129.7,78,129.6,78.1z M132,76.9
				c1-0.8,1.3,0.1,1.5,0.8C133,77.4,132.5,77.2,132,76.9z M134.3,75.9c0.3-0.3,0.8-0.8,1.4-1.4c0,0,0,0,0,0v0c0,0,0.2,0.3,0.4,0.6
				C135.3,75.5,134.7,75.8,134.3,75.9z M137.1,77c-0.1-0.2-0.1-0.4-0.2-0.6c0.6-0.4,1.2-0.8,1.8-1.3c0.3,0.2,0.9,0.6,1.8,1.1
				C139.2,76.5,138.1,76.8,137.1,77z"/>
			<path class="st5" d="M69.2,90.7c0-0.1,0.2-0.3,0.3-0.5h1.5c-0.4-1.1-0.8-2.1-1.2-3.1c0.1-0.1,0.3-0.4,0.5-0.7
				c-0.2-0.3-0.4-0.6-0.6-0.9c0.4-0.2,0.7-0.4,1.2-0.6c-0.6-0.9-1.1-1.6-1.5-2.5c-0.5-1-0.2-1.7,0.8-2.1c0.4-0.1,0.8-0.1,1.1-0.2
				v-4.1c-0.5-0.3-1-0.6-1.4-0.9c-0.2-1.3-0.6-2.6-0.7-3.8c0-0.3,0-0.6-0.1-0.9c-0.1,0.1-0.2,0.1-0.3,0.2c-0.3,0.3-0.4,0.6-0.4,1
				v24.5C69,94.4,69.4,92.6,69.2,90.7z"/>
			<path class="st5" d="M72.4,116.5c-0.2-0.1-0.3-0.2-0.5-0.4c0,0.2,0,0.4,0,0.6C72.1,116.7,72.3,116.6,72.4,116.5z"/>
			<path class="st5" d="M135.5,95.6c-2.7-0.5-3.6,2.5-5.8,3c-1.6,1.7-3.2,3.4-4.8,5.2c-0.4-0.2-0.7-0.5-1.1-0.7
				c-0.5,0.2-1.1,0.4-1.8,0.7c0.2,0.9-0.4,2,0.5,2.9c0,1.2-0.8,1.6-1.6,2.1l-0.1,4.9c0.1,0.3,0.2,0.6,0.3,0.9
				c0.1,0.2,0.2,0.5,0.1,0.8c-0.2,0.6-0.3,1.3-0.5,1.9l-0.4,18.7c0,0.4,0.1,0.7,0.4,1c0.3,0.3,0.6,0.4,1,0.4l19.6,0.4
				c0.4,0,0.8-0.1,1.1-0.4c0.3-0.3,0.4-0.6,0.4-1l0.9-45.6c-0.6,0.8-1.3,1.6-2,2.4C139.5,93.9,137.1,93.7,135.5,95.6z M132,129.1
				c0-0.2,0-0.3-0.1-0.5c0.3,0,0.6,0,0.9,0c0,0.1,0,0.2,0,0.3C132.6,129,132.3,129,132,129.1z M135.5,128.5c-0.1,0-0.2-0.1-0.4-0.2
				c0.1-0.1,0.1-0.1,0.2-0.2c0.1,0.1,0.2,0.1,0.3,0.2C135.6,128.4,135.5,128.5,135.5,128.5z M141.5,96.8c-0.1-0.1-0.2-0.1-0.2-0.2
				c0-0.1,0.1-0.2,0.2-0.4c0.1,0.1,0.1,0.1,0.2,0.2C141.6,96.5,141.5,96.7,141.5,96.8z"/>
			<path class="st5" d="M142.3,70.7c-0.3-0.3-0.6-0.4-1-0.4h-0.9c0.8,0.4,1.5,0.7,2.3,1.1C142.6,71.1,142.5,70.9,142.3,70.7z"/>
			<path class="st5" d="M68.7,113.1c-0.1,0-0.1-0.1-0.2-0.1v0.3C68.6,113.3,68.6,113.2,68.7,113.1z"/>
			<path class="st5" d="M157.5,69.8c0.7,0.2,1.3,0.4,2.2,0.6l3.1,3.2c1.5-0.2,3.1,0.1,4.6,0.9c1.3,0.7,2.5,1.8,3.9,2.3
				c1.9,0.6,1.9,2.7,3.4,3.5c0.1-0.1,0.3-0.3,0.7-0.6c2,1.8,3.6,4.3,6.8,3.5c0.5,1,0.9,1.9,1.4,2.9c1,0,1.9,0,2.8,0.1
				c1.7,0.2,3.3,0,4.8-1c1.1-0.8,2.4-0.4,3.4-0.5c0.7,0.4,1.3,0.8,1.9,1.2c0.8-0.1,1.4-1,2.4-0.3c0.5,0.3,1.5-0.4,2.1,0.4
				c0.4-0.2,0.8-0.4,1.3-0.7c0.2,0.3,0.3,0.6,0.5,1c1.2,0.4,2.6,1,4.2,1.5c0.4-0.4,0.9-0.8,1.4-1.3c1.7,0.5,3.6,0.7,4.7,2.3
				c0.6,0.9,1.9,0.1,2.2,1.2c0.4-0.2,0.6-0.4,0.8-0.6c0.2,0.1,0.4,0.1,0.4,0.1c0.1,1.4,1.4,1.7,2.3,2.3c0.8,0.6,1.7,1.7,2.9,0.7
				c0.9,0.6,1.7,0.6,2.5-0.1c0.3-0.3,0.7-0.6,1.2-1.1c0,0,0.1,0,0.1,0c0-4.6-0.9-8.5-2.8-11.9c-2-3.5-4.7-6.1-8.1-7.9
				c-3.4-1.8-7.2-2.8-11.2-2.8l-52.3-1c-0.4,0-0.8,0.1-1.1,0.3c1.1,0.1,2.1,0.2,3.1,0.4C154.6,68.7,156.1,69.3,157.5,69.8z
				 M218.6,77.4c0.1-0.1,0.3-0.3,0.4-0.4c0.1,0.1,0.1,0.1,0.2,0.2c-0.2,0.1-0.3,0.2-0.5,0.4C218.7,77.5,218.7,77.5,218.6,77.4
				c0.1,0.2,0.1,0.3,0.1,0.5c-0.3,0-0.7,0-1,0.1c0-0.1,0-0.2,0-0.4C218,77.5,218.3,77.5,218.6,77.4
				C218.7,77.4,218.7,77.4,218.6,77.4z M217.5,74.3c0.1,0.1,0.1,0.5,0,0.7c0,0.1-0.1,0.1-0.2,0.2c-0.1-0.1-0.3-0.2-0.4-0.3
				c-0.1-0.2-0.1-0.5-0.2-0.7C217.1,74.2,217.4,74.2,217.5,74.3z M215.1,75.8c0.1,0.1,0.2,0.1,0.3,0.2c-0.1,0.1-0.1,0.2-0.2,0.2
				c-0.1,0-0.2-0.1-0.4-0.2C215,75.9,215,75.9,215.1,75.8z M210.1,82.9c-0.3-0.4-0.5-0.8-0.7-1.2C210.1,81.6,210.7,81.5,210.1,82.9z
				 M193.1,79.8c0.1,0,0.2,0.1,0.4,0.2c-0.1,0.1-0.1,0.1-0.2,0.2c-0.1-0.1-0.2-0.1-0.3-0.2C193,79.9,193.1,79.8,193.1,79.8z
				 M186.8,74.6c0.1,0.1,0.1,0.2,0.2,0.4c-0.1,0.1-0.1,0.1-0.2,0.2c-0.1-0.1-0.1-0.2-0.2-0.4C186.6,74.7,186.7,74.7,186.8,74.6z
				 M184.1,81.3c0,0.3,0,0.6,0,0.9c-0.1,0-0.2,0-0.3,0c-0.1-0.3-0.1-0.6-0.2-0.9C183.8,81.3,183.9,81.3,184.1,81.3z M163.9,68.1
				c0.1,0.1,0.1,0.2,0.2,0.4c0,0-0.1,0.1-0.2,0.2c-0.1-0.1-0.1-0.2-0.2-0.4C163.7,68.2,163.9,68.1,163.9,68.1z"/>
			<path class="st5" d="M207,93.9c0.1,0.1,0.2,0.1,0.4,0.2c0,0,0.1-0.1,0.2-0.2c-0.1-0.1-0.2-0.1-0.4-0.2
				C207.1,93.7,207.1,93.8,207,93.9z"/>
			<path class="st5" d="M176.9,91.1h4.5c0-0.1-0.1-0.1-0.1-0.2c-1.5-0.3-3,0.3-4.4-0.6c0,0-0.3,0.3-0.4,0.5c0,0,0,0,0,0
				C176.6,90.9,176.7,91,176.9,91.1z"/>
			<path class="st5" d="M192,90.1c1.2-0.6,1.8-0.9,2.5-1.3C193.4,88.4,192.8,88.6,192,90.1z"/>
			<rect x="186.3" y="89.3" class="st5" width="1.5" height="0.9"/>
			<path class="st5" d="M212.2,94.1c-0.3,0.5-0.5,1-0.9,1.8c1.2-0.3,1.8-0.6,1.7-1.7C212.7,94.2,212.5,94.1,212.2,94.1z"/>
			<path class="st5" d="M218.8,97.9c-0.7-0.4-1.2-0.7-2-0.2c0.2,0.4,0.4,0.7,0.6,1.2c-0.2,0-0.5,0.3-0.6,0.2
				c-0.5-0.5-0.9-1.3-1.5-1.6c-0.6-0.3-1.3-0.3-2-0.5c-1.6-0.5-3.3-0.5-5-0.7c-0.1-1.4-1.4-1.4-2.4-1.9c-1.2-0.7-2,0.1-2.9,0.4
				c-0.5-1-1.2-1.6-2.2-1.7c0,0.2,0.1,0.4,0.1,0.6c0,0.7-0.3,1.3-0.8,1.8c-0.5,0.5-1.3,0.7-2.2,0.7l-5.8,0c-0.1,0.1-0.2,0.3-0.2,0.4
				c-0.1,0.3-0.2,0.6-0.3,1c-0.3-0.1-0.5-0.1-1-0.2c0.2-0.5,0.4-0.8,0.6-1.1c0,0,0,0,0,0l-19,0.1c-0.4,0-0.7-0.1-0.9-0.3
				c-0.3-0.2-0.4-0.4-0.4-0.7v-3.1c0-0.3,0.1-0.5,0.4-0.7c0.2-0.2,0.5-0.3,0.9-0.3h4.4c-0.1-0.1-0.1-0.2-0.2-0.3c0,0,0,0,0.1-0.1
				h-1.5c-0.1-2.8-3.1-3.1-4.2-5c-1.8,0.2-3.1-0.7-4.7-2.2c-0.7-0.1-2.2,0.2-3.1-1.6c-0.4-0.9-2.1-0.6-3.3-0.6
				c-0.1-0.5-0.2-1-0.3-1.6h-2.9c-0.4-1.1-0.8-1.7-2.1-1.7c-1,0-2-0.6-3.1-0.5c-1,0.1-2,0.3-3,0.4c-0.3,0.6-0.6,1.2-0.8,1.9v53.3
				c0.3-0.3,0.6-0.5,0.9-0.7c0.1,0.5,0.2,0.8,0.2,1.2c-0.3,0-0.6,0-1.1,0v1.6c0,0.4,0.2,0.8,0.5,1.1c0.3,0.3,0.7,0.5,1.1,0.5h19.3
				c0.4,0,0.8-0.2,1.1-0.5c0.3-0.3,0.5-0.7,0.5-1.1v-17.7c0-0.4,0.2-0.8,0.5-1.1c0.3-0.3,0.7-0.5,1.1-0.5l29.8-0.1
				c3.9,0,7.6-1,11.1-3c3.5-2,6.3-4.7,8.4-8.2c1.2-2,2-4,2.5-6.2c-0.1,0-0.1,0.1-0.2,0.1C221.6,99.7,220.2,98.8,218.8,97.9z
				 M150,125.5c-0.1,0-0.2,0-0.3,0c0-0.4,0-0.7,0-1.1c0.1,0,0.2,0,0.3,0C150,124.8,150,125.2,150,125.5z M164.1,115.1
				c0.1,0.1,0.1,0.1,0.2,0.2c-0.1,0.1-0.1,0.2-0.2,0.4c-0.1-0.1-0.2-0.1-0.2-0.2C164,115.3,164,115.2,164.1,115.1z M159.9,119.6
				c0,0.1,0,0.2,0,0.3c-0.3,0.1-0.6,0.1-0.9,0.2c0-0.2,0-0.3,0-0.5C159.3,119.6,159.6,119.6,159.9,119.6z M159.3,121.8
				c0.1,0.1,0.1,0.1,0.2,0.2c-0.1,0.1-0.2,0.1-0.4,0.2c0,0-0.1-0.1-0.2-0.2C159,121.9,159.1,121.8,159.3,121.8z M158.6,131.1
				c0.1,0.2,0.3,0.3,0.4,0.5c0,0-0.1,0.1-0.1,0.1c-0.1-0.1-0.3-0.3-0.4-0.4C158.5,131.2,158.5,131.1,158.6,131.1z M158.6,133.3
				c0.1,0.2,0.3,0.3,0.4,0.5c0,0,0,0-0.1,0.1c0.1,0.1,0.3,0.2,0.4,0.4c-0.2,0.1-0.3,0.1-0.5,0.2c0-0.2,0-0.4,0-0.5c0,0,0,0,0,0
				c-0.1-0.1-0.3-0.3-0.4-0.4C158.5,133.4,158.5,133.4,158.6,133.3z M156.4,102.9c0.1,0.1,0.1,0.2,0.2,0.4c-0.1,0.1-0.1,0.1-0.2,0.2
				c-0.1-0.1-0.1-0.2-0.2-0.4C156.3,103.1,156.4,103,156.4,102.9z M154.1,117.3c0.3,0,0.6,0,0.9,0c0,0.5,0,1,0,1.6
				c-0.3,0-0.6,0-0.9,0C154.1,118.3,154.1,117.8,154.1,117.3z M153.1,129.1c-0.1-0.6-0.1-0.9-0.2-1.3c0.6,0,1.1,0,2,0
				C154.1,128.3,153.7,128.7,153.1,129.1z M154.4,131.8c0,0.1-0.1,0.2-0.2,0.4c-0.1-0.1-0.1-0.1-0.2-0.2c0.1-0.1,0.1-0.2,0.2-0.4
				C154.3,131.7,154.4,131.7,154.4,131.8z M153.3,133.1c0,0-0.1,0.1-0.2,0.2c-0.1-0.1-0.1-0.2-0.2-0.4c0,0,0.1-0.1,0.2-0.2
				C153.2,132.8,153.3,132.9,153.3,133.1z M152.3,114.7c0.4,0,0.7,0,1.1,0c0,0.1,0,0.2,0,0.3c-0.4,0-0.7,0-1.1,0
				C152.3,114.8,152.3,114.7,152.3,114.7z M154.4,135.3c-0.5-0.2-1-0.5-1.5-0.8c0.7-0.3,1.4-0.6,2.3-1
				C154.8,134.4,154.6,134.9,154.4,135.3z M155.9,133.2c-0.1-0.1-0.2-0.1-0.2-0.2c0-0.1,0.1-0.2,0.2-0.4c0.1,0.1,0.1,0.1,0.2,0.2
				C156,133,156,133.1,155.9,133.2z M156,128.9c-0.4-0.4-0.6-0.6-0.6-0.6c0.4-0.5,0.8-1,1.5-1.8C156.5,127.4,156.3,128.1,156,128.9z
				 M158,125.6c0.1,0.1,0.2,0.1,0.4,0.2c-0.1,0.1-0.1,0.2-0.2,0.2c-0.1,0-0.2-0.1-0.4-0.2C157.9,125.7,157.9,125.7,158,125.6z
				 M158.4,136c-0.1,0.1-0.3,0.3-0.4,0.4c-0.1-0.1-0.1-0.1-0.2-0.2c0.1-0.1,0.3-0.3,0.4-0.4C158.3,136,158.3,136,158.4,136
				c0.1-0.6-0.6-1.4,0.5-1.7c0.1,0.3,0.3,0.5,0.5,0.9C159.1,135.5,158.7,135.7,158.4,136C158.4,136,158.4,136,158.4,136z
				 M158.9,131.8c0.3-0.1,0.5-0.2,0.8-0.2c0.1,0,0.2,0.2,0.6,0.6C159.6,132,159.2,131.9,158.9,131.8z M160.3,135.9
				c0.5-0.4,0.7-0.6,1.1-0.9c0.1,0.3,0.2,0.7,0.3,0.9C161.6,135.9,161.1,135.9,160.3,135.9z M162,131c-0.1,0-0.2,0-0.3,0
				c0-0.4,0-0.7,0-1.1c0.1,0,0.2,0,0.3,0C162,130.3,162,130.7,162,131z M161.4,128.5c-0.4-1.2-0.2-2.2-0.3-3.3c1.1,0,1.9,0,2.8,0
				c0,0.1,0,0.2,0,0.3c-0.5,0.1-1,0.1-1.5,0.2C162,126.4,161.7,127.3,161.4,128.5z M163.6,131.5c0.3,0.8,0.6,1.4,1,2.3
				C163.4,132.9,163.4,132.9,163.6,131.5z M165,136.5c0-0.1,0-0.2,0-0.3c0.3-0.1,0.6-0.1,0.9-0.2c0,0.2,0,0.3,0,0.5
				C165.6,136.5,165.3,136.5,165,136.5z M166.8,93.6c0.1,0.1,0.2,0.1,0.2,0.2c0,0.1-0.1,0.2-0.2,0.4c-0.1-0.1-0.1-0.1-0.2-0.2
				C166.7,93.8,166.8,93.7,166.8,93.6z M166.6,131.3c0.3-0.3,0.5-0.5,0.9-0.9c0.3,0.5,0.5,1,0.8,1.5
				C167.2,132.5,167,131.7,166.6,131.3z M169,115.6c-0.1-0.1-0.2-0.1-0.2-0.2c0-0.1,0.1-0.2,0.2-0.4c0.1,0.1,0.1,0.1,0.2,0.2
				C169.2,115.4,169.1,115.5,169,115.6z M170,107.8c0,0-0.1-0.1-0.2-0.2c0.1-0.1,0.2-0.1,0.4-0.2c0.1,0.1,0.1,0.1,0.2,0.2
				C170.3,107.7,170.2,107.8,170,107.8z M178.9,109.6c-0.1-0.1-0.2-0.1-0.2-0.2c0-0.1,0.1-0.2,0.2-0.4c0.1,0.1,0.1,0.1,0.2,0.2
				C179,109.3,178.9,109.4,178.9,109.6z M180.3,114.4c0-0.3,0-0.6,0-0.9c0.1,0,0.2,0,0.3,0c0.1,0.3,0.1,0.6,0.2,0.9
				C180.6,114.4,180.5,114.4,180.3,114.4z M185.7,105.4c-0.5-0.5-0.8-0.8-1.1-1.1C185.6,103.8,185.7,104.2,185.7,105.4z M205.5,96.8
				c0-0.1,0-0.2,0-0.3c0.5-0.1,1-0.1,1.4-0.2c0,0.2,0,0.3,0,0.5C206.5,96.8,206,96.8,205.5,96.8z M208.5,107.3
				c-0.1-0.1-0.2-0.1-0.4-0.2c0.1-0.1,0.1-0.2,0.2-0.2c0.1,0,0.2,0.1,0.4,0.2C208.6,107.1,208.5,107.2,208.5,107.3z"/>
			<path class="st5" d="M218.5,96.1c0.1,0.1,0.1,0.2,0.2,0.2c0.1,0,0.2-0.1,0.4-0.2c-0.1-0.1-0.1-0.1-0.2-0.2
				C218.7,95.9,218.6,96,218.5,96.1z"/>
			<path class="st5" d="M306.6,106.4c0,0.1,0.1,0.2,0.1,0.3v-0.4C306.7,106.3,306.6,106.4,306.6,106.4z"/>
			<path class="st5" d="M259.7,70.7c0.6,1.6,1.2,3.3,3,4.1c-0.2,0.9,0.2,1.9-0.7,2.7c-0.5,0.4,0,1.3-0.5,2c-0.3,0.4,0.1,1.2,0.1,1.9
				c0,1.1-0.2,2.2-0.2,3.3c0.7,0.6,0.5,1.8,1.7,2.2c0.7,0.2,1.2,1.2,2.2,1.2c0.2,0,0.4,0.2,0.6,0.3l16.1,1.3
				c0.9,0.1,1.6,0.5,2.2,1.2c0.1,0.2,0.2,0.4,0.3,0.5c0.5-0.4,1.1-0.9,1.8-1.7c1.4-0.2,2.7,0.5,4.3-0.2c-0.3,0.6-0.4,0.9-0.7,1.4
				c1.2,1.4,3.3,2,4.9,3.2c1.5,1.2,3.5,1.7,5.4,2.5l-0.1,1.4c2.2,2.1,4.3,4.1,6.4,6.1l0.6-7.8c-0.1-0.2-0.2-0.4-0.2-0.6
				c-0.2-0.2-0.3-0.4-0.5-0.6c-0.4-0.1-1.1,0.2-1-0.6c0.4,0.1,1.1-0.2,1,0.6c0.2,0.2,0.3,0.4,0.5,0.6c0.1,0,0.2,0,0.2,0l0.5-6.6
				c0.3-3.5-0.3-6.8-1.7-9.9c-1.4-3.1-3.5-5.6-6.2-7.6c-2.7-2-5.8-3.1-9.2-3.4L260.5,66c-0.2,0.4-0.4,0.7-0.5,1.1
				C259.3,68.3,259.1,69.4,259.7,70.7z M305.5,94.7c-0.9,0-1.6-0.5-2.1-1.3C304.3,93.4,305.2,93.4,305.5,94.7z M303.4,93.2
				c-0.3,0.1-0.5,0.2-0.8,0.2c-0.1,0-0.2-0.2-0.5-0.7C302.7,92.9,303.1,93,303.4,93.2z M300.7,92.2c0.4,0,0.7,0.1,1.1,0.1
				c0,0.1,0,0.2,0,0.3c-0.4,0-0.7-0.1-1.1-0.1C300.7,92.4,300.7,92.3,300.7,92.2z M299.1,91.5c-0.9,0.4-0.9,0.4-1.5-0.1
				C298,91.4,298.5,91.4,299.1,91.5z M297.2,90.8c0.1,0.2,0.2,0.3,0.3,0.5c0,0-0.1,0.1-0.1,0.1c-0.1-0.1-0.3-0.3-0.4-0.4
				C297.1,90.9,297.2,90.8,297.2,90.8z M294.9,90.6c0.4,0,0.9,0.1,1.5,0.1C295.5,91.1,295.5,91.1,294.9,90.6z M296.8,70.8
				c0.1,0.1,0.1,0.1,0.2,0.2c-0.1,0.1-0.2,0.1-0.4,0.1c0,0-0.1-0.1-0.2-0.2C296.5,71,296.7,70.9,296.8,70.8z M294.8,81.7
				c0.1,0.1,0.1,0.1,0.2,0.2c-0.1,0.1-0.2,0.1-0.4,0.1c0,0-0.1-0.1-0.2-0.2C294.5,81.8,294.7,81.8,294.8,81.7z M292.2,89.7
				c0.3,0.3,0.6,0.5,0.8,0.6c0.6,0.3,1.3-1.2,1.9,0.1c-1,0.6-1.8,0.6-2.8,0.2C292.1,90.4,292.2,90.1,292.2,89.7z M265.2,79.8
				c0.1,0.1,0.1,0.2,0.2,0.4c-0.1,0.1-0.1,0.1-0.2,0.2c-0.1-0.1-0.1-0.3-0.1-0.4C265.1,79.9,265.2,79.9,265.2,79.8z"/>
			<path class="st5" d="M304.2,104.7c-0.1,0-0.2,0.1-0.4,0.2c0.1,0.1,0.1,0.2,0.2,0.2c0.1,0,0.2-0.1,0.4-0.2
				C304.3,104.8,304.2,104.7,304.2,104.7z"/>
			<path class="st5" d="M297.1,99.1c-0.1,0-0.2,0-0.4,0c0,0.4,0,0.9,0.5,1.3C297.2,100,297.2,99.6,297.1,99.1z"/>
			<path class="st5" d="M288.2,95.2c-0.1,0.1-0.1,0.2-0.2,0.4l0.2,0.2c0.1-0.1,0.1-0.2,0.2-0.4C288.4,95.4,288.3,95.3,288.2,95.2z"
				/>
			<path class="st5" d="M297.8,101.8c0-0.3,0-0.6-0.5-0.8c0.1,0.3,0.1,0.6,0.2,0.9C297.5,101.8,297.6,101.8,297.8,101.8z"/>
			<path class="st5" d="M297.4,103c0,0.2,0,0.3,0,0.5c0.3-0.1,0.6-0.1,0.9-0.2c0-0.1,0-0.2,0-0.3H297.4z"/>
			<path class="st5" d="M304.5,107.3c-0.5-1.2-1.1-2.3-2.6-2.1c-0.2-0.4-0.5-0.8-0.9-1.5c-0.6,1.2-1.1,2-1.6,3
				c0.7,1.3,0.5,2.1-1,3.1c-0.1-1-0.1-1.8-0.2-2.7c-0.7-0.8-1.7-1.1-2.1-2.1c-0.3-0.7-1.1-1.2-2-0.7c-0.1,0.3-0.2,0.6-0.4,1.1
				c-0.2-0.5-0.4-0.9-0.6-1.2h-0.8v-2c0.3-0.1,0.6-0.2,0.9-0.3c0.4-0.8,0-1.3-0.3-1.9c-0.3-0.5-0.1-1.2-0.3-1.8
				c-0.3-0.6-0.8-1.1-1.2-1.7c-1.2,0.4-2.4,0.7-3.6,1.1c-0.3-0.2-0.7-0.4-1.2-0.8c-0.2,0.8-0.3,1.3-0.4,1.9c-0.3,0-0.4,0-0.8,0
				c-0.1-0.5-0.1-1-0.2-1.5c-0.1-0.1-0.2-0.2-0.2-0.2c-0.2,0.1-0.4,0.2-0.6,0.4v3.6c0.5,0.4,0.6,1.1,1,1.8c-0.3,0.2-0.6,0.4-1,0.6
				v1.4c0.6,0,1.2-0.1,2-0.1c-0.2-0.3-0.3-0.6-0.5-0.8c0.2-0.1,0.3-0.1,0.6-0.3c0.2,0.4,0.4,0.8,0.7,1.2c0.3,0.4,0.6,0.8,1.3,1.6
				c-1,0-1.4,0-1.9,0c-0.2-0.3-0.3-0.7-0.6-1.3c-0.5,0.5-0.8,1-1.2,1.4c-0.1,0.1-0.2,0.2-0.3,0.3v2.2c0.2-0.4,0.4-0.9,0.6-1.4
				c0.3,0.3,0.6,0.6,0.6,0.6c-0.4,0.4-0.8,0.8-1.2,1.1v2c0,1-0.3,1.9-1,2.5c-0.6,0.7-1.4,1-2.3,1h-26.4c-0.9,0-1.7-0.3-2.3-1
				s-1-1.5-1-2.5v-6.5c-0.4,0-0.7,0-1.1,0c0.4-0.4,0.7-0.8,1.1-1.2v-4.5c-0.9,0.4-1.7,0.7-2.6,0.8c-1.1,0.1-2.3-0.4-3.6-0.7
				c0.3-0.3,0.5-0.6,0.9-0.9h5.1c-1.1-0.6-1.5-0.9-2.1-1.1c-0.4-0.1-0.9-0.1-1.4,0c-0.4,0.1-0.8,0.5-1.1,0.5s-0.7-0.4-1.1-0.5
				c-0.4-0.1-0.8,0-1.6,0c0.3,0.7,0.5,1,0.7,1.5c-0.2,0-0.5,0.3-0.6,0.2c-0.6-0.5-1.2-1.1-1.9-1.6c-1.4-0.1-2.1,1.9-3.6,1.7
				c-1,1-2.3,0.8-3.3,0.4c-0.8-0.3-1.2,0.3-1.8,0.1c-0.2-0.4-0.3-0.7-0.6-1.3c-0.6,0.4-1.1,0.8-1.6,1.2c-0.1-0.4-0.2-0.7-0.4-1.1
				c-0.4,0.2-0.8,0.4-1.4,0.6c-0.2-0.1-0.4-0.2-0.6-0.3v19.4c0,3.5,0.8,6.7,2.5,9.7c1.7,3,3.9,5.3,6.8,7c2.9,1.7,6,2.6,9.3,2.6h40.6
				c3.4,0,6.6-0.9,9.4-2.6c2.9-1.7,5.1-4.1,6.8-7c1.6-3,2.5-6.2,2.5-9.7v-9.2C306.3,107.8,305.7,107.3,304.5,107.3z M231.4,106.3
				c-0.1-0.1-0.1-0.1-0.2-0.2c0.1-0.1,0.1-0.2,0.2-0.4c0.1,0.1,0.2,0.1,0.2,0.2C231.5,106,231.4,106.1,231.4,106.3z M231.3,104.5
				c0,0-0.1-0.1-0.2-0.2c0.1-0.1,0.2-0.1,0.4-0.2c0,0,0.1,0.1,0.2,0.2C231.5,104.4,231.4,104.5,231.3,104.5z M235.8,125.5
				c-0.1-0.1-0.2-0.1-0.4-0.2c0.1-0.1,0.1-0.2,0.2-0.2c0.1,0,0.2,0.1,0.4,0.2C235.9,125.3,235.9,125.4,235.8,125.5z M236.6,113
				c-0.2-0.7,0.2-0.9,1.3-0.4C237.3,112.8,236.9,112.9,236.6,113z M238.5,101.3c0.1,0.1,0.1,0.2,0.2,0.4c-0.1,0.1-0.1,0.1-0.2,0.2
				c-0.1-0.1-0.1-0.2-0.2-0.4C238.3,101.4,238.4,101.4,238.5,101.3z M238.5,103.5c0.1,0.1,0.1,0.2,0.2,0.4c0,0-0.1,0.1-0.2,0.2
				c-0.1-0.1-0.1-0.2-0.2-0.4C238.3,103.6,238.4,103.6,238.5,103.5z M238.2,114.5c0-0.4,0-0.6,0-0.9c0.5,0,1.1,0,2,0
				C239.3,114,238.8,114.2,238.2,114.5z M242.8,116.7c-0.1-0.1-0.2-0.1-0.2-0.2c0-0.1,0.1-0.2,0.2-0.4c0.1,0.1,0.1,0.1,0.2,0.2
				C243,116.5,242.9,116.6,242.8,116.7z M243.4,105.2c-0.1-0.1-0.1-0.2-0.2-0.4c0,0,0.1-0.1,0.2-0.2c0.1,0.1,0.1,0.2,0.2,0.4
				C243.5,105,243.4,105.1,243.4,105.2z M248.3,105.7c-0.1-0.1-0.1-0.1-0.2-0.2c0.1-0.1,0.3-0.3,0.4-0.4c0.1-0.1,0.3-0.3,0.4-0.4
				c0.1,0.1,0.1,0.1,0.2,0.2c-0.1,0.1-0.3,0.3-0.4,0.4C248.5,105.4,248.4,105.5,248.3,105.7z M250.7,101.9c0,0.3,0,0.6,0,0.9
				c-0.5,0-1,0-1.6,0C249.1,101.3,250,102,250.7,101.9z M266.9,136.5c-0.1-0.1-0.1-0.2-0.2-0.4c0,0,0.1-0.1,0.2-0.2
				c0.1,0.1,0.1,0.2,0.2,0.4C267.1,136.4,267,136.5,266.9,136.5z M269.1,117.8c-0.1-0.1-0.1-0.2-0.2-0.4c0,0,0.1-0.1,0.2-0.2
				c0.1,0.1,0.1,0.2,0.2,0.4C269.3,117.7,269.1,117.8,269.1,117.8z M271.4,128.2c-0.1,0-0.2-0.1-0.4-0.2c0.1-0.1,0.1-0.1,0.2-0.2
				c0.1,0.1,0.2,0.1,0.4,0.2C271.5,128.1,271.4,128.2,271.4,128.2z M273.9,119.4c-0.1-0.1-0.1-0.1-0.2-0.2c0.1-0.1,0.2-0.1,0.4-0.2
				c0,0,0.1,0.1,0.2,0.2C274.2,119.3,274,119.3,273.9,119.4z M276.8,116.3c0,0,0.1,0.1,0.2,0.2c-0.1,0.1-0.2,0.1-0.4,0.2
				c-0.1-0.1-0.1-0.1-0.2-0.2C276.6,116.4,276.7,116.3,276.8,116.3z M276.6,126c0-0.3,0-0.6,0-0.9c0.1,0,0.2,0,0.3,0
				c0.1,0.3,0.1,0.6,0.2,0.9C276.9,126,276.7,126,276.6,126z M277.4,122.8c-0.1,0-0.2,0-0.3,0c0-0.4,0-0.7,0-1.1c0.1,0,0.2,0,0.3,0
				C277.4,122,277.4,122.4,277.4,122.8z M282,116.4c0.3-0.1,0.6-0.1,0.9-0.2c0,0.2,0,0.3,0.1,0.5c-0.3,0-0.6,0-0.9,0
				C282,116.5,282,116.4,282,116.4z M282.6,117.9c0.3,0,0.6,0,1.2,0c-0.5,0.9-0.7,1.5-1.2,2.4C282.6,119.3,282.6,118.7,282.6,117.9z
				 M283.3,121.1c-0.1-0.1-0.2-0.1-0.2-0.2c0-0.1,0.1-0.2,0.2-0.4c0.1,0.1,0.1,0.1,0.2,0.2C283.4,120.9,283.4,121,283.3,121.1z
				 M283.9,133.2c-0.1-0.1-0.1-0.1-0.2-0.2c0.1-0.1,0.1-0.2,0.2-0.4c0.1,0.1,0.2,0.1,0.2,0.2C284,133,283.9,133.1,283.9,133.2z
				 M293.3,105.9c-0.2,0.5-0.3,0.8-0.5,1.3c0.4,0.1,0.7,0.1,1,0.2c0.1-0.5,0.2-1,0.3-1.5c0.7,0.2,1.4,0.4,1.9,0.6
				c-0.8,0.6-1.6,1.3-2.2,1.8c-0.9-0.2-1.7-0.4-2.6-0.5c0.4-0.4,0.8-0.8,1.3-1.4c-0.6-0.6-1.3-1.3-2.1-2.2c1,0,1.5,0,2,0
				C292,105.1,293.1,105.3,293.3,105.9z M292.3,100.9c0,0.1,0,0.2,0,0.3c-0.4,0-0.7,0-1.1,0c0-0.1,0-0.2,0-0.3
				C291.6,100.9,292,100.9,292.3,100.9z M288.3,100.8c-0.1-0.1-0.3-0.2-0.4-0.3c0.4-0.8,0.8-1.6,1.1-2.3c1.3-0.5,2,0,2.4,1.4
				c-0.6-0.2-1-0.4-1.3-0.5C289.5,99.7,288.9,100.2,288.3,100.8z M289,101.1c-0.1,0.1-0.1,0.1-0.2,0.2c-0.1-0.1-0.3-0.3-0.4-0.4
				c0,0,0.1-0.1,0.1-0.1C288.7,100.8,288.8,100.9,289,101.1z M286.7,110c-0.1-0.1-0.2-0.1-0.4-0.2c0.1-0.1,0.1-0.2,0.2-0.2
				c0.1,0,0.2,0.1,0.4,0.2C286.8,109.9,286.7,110,286.7,110z M287.7,133.8c-0.1-0.1-0.1-0.2-0.2-0.4c0,0,0.1-0.1,0.2-0.2
				c0.1,0.1,0.1,0.2,0.2,0.4C287.9,133.7,287.7,133.7,287.7,133.8z M287.7,108.5c-0.1-0.1-0.2-0.1-0.2-0.2c0-0.1,0.1-0.2,0.2-0.4
				c0.1,0.1,0.1,0.1,0.2,0.2C287.8,108.2,287.7,108.3,287.7,108.5z M288,122.7c0-0.3,0-0.6,0-0.9c0.5,0,1,0,1.5,0c0,0.3,0,0.6,0,0.9
				C289,122.7,288.5,122.7,288,122.7z M289.2,134.3c-0.1-0.1-0.1-0.1-0.2-0.2c0.1-0.1,0.2-0.1,0.4-0.2c0,0,0.1,0.1,0.2,0.2
				C289.5,134.1,289.4,134.2,289.2,134.3z M290.1,109.5c-1-0.5-1.2-1.2-0.9-2.1c0.3,0,0.5,0,0.9,0
				C290.1,108.1,290.1,108.8,290.1,109.5z M289.9,101.2c-0.1-0.1-0.2-0.1-0.4-0.2c0.1-0.1,0.1-0.2,0.2-0.2c0.1,0,0.2,0.1,0.4,0.2
				C290.1,101.1,290,101.1,289.9,101.2z M291.2,119.3c-0.4,0-0.7,0-1.1,0c0-0.1,0-0.2,0-0.3c0.4,0,0.7,0,1.1,0
				C291.2,119.2,291.2,119.2,291.2,119.3z M292.3,117.1c-0.4,0-0.7,0-1.1,0c0-0.1,0-0.2,0-0.3c0.4,0,0.7,0,1.1,0
				C292.3,116.9,292.3,117,292.3,117.1z M292.3,114.5c-0.6,0-1,0-1.5,0c-0.1-0.3-0.1-0.5-0.2-0.8c0.3-0.1,0.7-0.2,1.2-0.4
				c-0.1-0.6-0.2-1.2-0.4-2c0.5-0.3,1.2-0.7,2.1-1.3c0.4,0.5,0.7,0.9,1.4,1.7c-0.9-0.1-1.3-0.1-2.1-0.2c-0.2,0.4-0.5,0.7-0.5,1.1
				C292.3,113.2,292.3,113.8,292.3,114.5z M292.6,136c-0.1-0.1-0.2-0.1-0.2-0.2c0-0.1,0.1-0.2,0.2-0.4c0.1,0.1,0.1,0.1,0.2,0.2
				C292.7,135.8,292.7,135.9,292.6,136z M292.5,123.9c0.5-0.3,0.8-0.5,1.1-0.7c0.4,0.8,0.7,1.4,1.1,2.2
				C293.9,124.8,293.3,124.4,292.5,123.9z M296.2,113.5C296.2,113.5,296.2,113.4,296.2,113.5c0,0.1,0,0.2,0,0.3
				c-0.9,0.3-1.7,0.5-2.8,0.9c0.6-0.9,1-1.6,1.4-2.3c0.2,0.4,0.3,0.7,0.5,1.1C295.6,113.4,295.9,113.4,296.2,113.5
				c-0.1-0.1-0.1-0.1-0.1-0.1c0.1-0.1,0.3-0.3,0.4-0.4c0.1,0.1,0.1,0.1,0.2,0.2C296.5,113.2,296.4,113.3,296.2,113.5z M297.7,110.9
				c-0.2,0.3-0.5,0.6-0.7,0.9c-0.6-3.5-0.6-3.5,0.7-3.8C297.1,109,297.1,110,297.7,110.9z M301.7,107.5c0-0.1,0.1-0.1,0.2-0.2
				c0.3,0.4,0.6,0.8,0.8,1.2c0,0-0.1,0.1-0.2,0.5c-0.1-0.1-0.2-0.2-0.3-0.3C301.9,108.5,301.4,108.2,301.7,107.5z M299,111.7
				c0-0.1,0-0.2,0-0.3c0.3-0.1,0.6-0.1,0.9-0.2c0,0.2,0,0.3,0.1,0.5C299.6,111.7,299.3,111.7,299,111.7z M301.4,106.3
				c0.1,0.1,0.1,0.1,0.2,0.2c-0.1,0.1-0.3,0.3-0.4,0.4c-0.1,0.1-0.3,0.3-0.4,0.4c-0.1-0.1-0.1-0.1-0.2-0.2c0.1-0.1,0.3-0.3,0.4-0.4
				C301.1,106.6,301.3,106.5,301.4,106.3z M301.9,115.6c-0.4,0-0.7,0-1.2,0c0-0.7,0-1.5,0-2.1c0.9,0,1.7,0,2.6,0
				C303.3,114.6,302.4,115,301.9,115.6z M304.7,109.5c-0.1-0.1-0.2-0.1-0.4-0.2c0.1-0.1,0.1-0.2,0.2-0.2c0.1,0,0.2,0.1,0.4,0.2
				C304.8,109.3,304.8,109.4,304.7,109.5z M305.3,110.6c-0.1-0.1-0.2-0.1-0.4-0.2c0.1-0.1,0.1-0.2,0.2-0.2c0.1,0,0.2,0.1,0.4,0.2
				C305.4,110.4,305.3,110.5,305.3,110.6z"/>
			<path class="st5" d="M237,98.4c0-0.1-0.1-0.2-0.2-0.4c-0.1,0.1-0.2,0.1-0.2,0.2c0,0.1,0.1,0.2,0.2,0.4
				C236.9,98.5,237,98.4,237,98.4z"/>
			<path class="st5" d="M231.3,92.2c0.7-0.6,2.2-0.2,3.2-0.9c0.3-0.2,0.8-0.2,1.1-0.1c1.4,0.7,2.7,0.6,3.9-0.3
				c0.2-0.1,0.6,0.1,1.1,0.3c0.4-0.3,1-0.6,1.7-1.1c0.8-0.1,1.9-0.2,3-0.2c1.1,0,2.3-0.7,3.4,0.3c0.5-1.6,2,0.8,2.6-0.6
				c0.6,0.3,1.3,0.6,1.9,1c0.4-0.3,0.9-0.4,1.4-0.4l1.5-0.1c0.8-0.8,1.7-1.5,2.5-2.2c-0.4-2.5-0.8-4.9-1.1-7.3
				c0.5-0.4,0.9-0.7,1.2-0.9l-0.1-2.1c-0.6-0.5-1.2-1.1-1.9-1.5c-0.6-0.3-0.3-1.6-1.4-1.3c-0.5-1.8-1-3.6-1.6-5.7
				c0.2-0.3,0.4-0.6,0.6-1l-8.3,0.6c-3.4,0.2-6.4,1.3-9.1,3.3c-2.7,1.9-4.8,4.5-6.3,7.5c-1.5,3.1-2.1,6.4-1.8,9.9l0.2,2.8
				C229.6,92.4,230.3,93,231.3,92.2z M250.4,77.8c-0.3,0.2-0.7,0.4-1,0.7C248.9,77.4,249.5,77.5,250.4,77.8z M249,79.8
				c0.1,0,0.3,0.1,0.4,0.1c-0.1,0.1-0.1,0.1-0.2,0.2c-0.1-0.1-0.2-0.1-0.4-0.2C248.9,79.9,248.9,79.8,249,79.8z M233.6,87
				c0.1,0,0.3,0.1,0.4,0.1c-0.1,0.1-0.1,0.1-0.2,0.2c-0.1-0.1-0.2-0.1-0.4-0.2C233.5,87.1,233.5,87,233.6,87z"/>
			<path class="st5" d="M292.9,111.5C293.1,111.4,293,111.4,292.9,111.5L292.9,111.5z"/>
			<path class="st5" d="M300,103.2c0.1,0.1,0.2,0.1,0.4,0.2c0.1-0.1,0.1-0.1,0.2-0.2c-0.1-0.1-0.2-0.1-0.4-0.2
				C300.1,103,300,103.2,300,103.2z"/>
			<path class="st5" d="M314.9,110.8c0,0.1,0.1,0.2,0.2,0.4l0.2-0.2c-0.1-0.1-0.1-0.2-0.2-0.4C315,110.7,314.8,110.8,314.9,110.8z"
				/>
			<path class="st5" d="M322.1,80.6C322.1,80.6,322.1,80.6,322.1,80.6c-0.1,0-0.3,0.1-0.5,0.4c-0.2-0.4-0.2-0.7-0.4-1
				c-0.2-0.3-0.6-0.5-0.9-0.7c0.2-0.2,0.4-0.4,0.5-0.6c0,0,0,0,0.1,0.1c0.1-0.1,0.3-0.3,0.4-0.4c-0.1-0.1-0.1-0.1-0.2-0.2
				c-0.1,0.2-0.3,0.3-0.4,0.5c-0.2,0.2-0.3,0.4-0.5,0.6c-0.5,0.1-1,0.3-1.6,0.4c-0.3-1.3,0.4-2.6,0.9-3.8c0.5-1.1,0.7-2.2,0.6-3.3
				c-0.1-1.5-0.1-2.9,0.1-4.4l-8.3,0.1c-0.4,0-0.8,0.1-1.1,0.4c-0.3,0.3-0.5,0.7-0.5,1.1l0.1,28.3c1.5,0.4,3,0.8,3.2,2.7
				c-1-0.9-2.4-1.4-3.2-2.6l0,6.8c0.3,0.7,0.7,1.4,1.2,1.7c1,0.6,2.3,0.6,3.7,1l0-1.9c0,0,0,0,0,0c-0.9-0.9-1.1-2.1-1.1-3.3
				c-1.1-0.3-0.3-1.1-0.6-1.6c1.1,0.3,0.3,1.1,0.6,1.6c1.3,0.8,1.1,2.1,1.1,3.3c0.6,0.5,1.2,1,1.9,1.5c0.4-0.1,0.7-0.9,1.4-0.2
				c0.3,0.3,1,0.2,1.5,0.3c0.6,0.1,1.1,0.3,2.1,0.6c0.1-0.2,0.2-0.6,0.4-1.1c0.1,0.1,0.2,0.2,0.4,0.3c0-1.5,0-2.9,0-4.4
				c0-0.6,0.1-1.2-0.5-1.8c-0.2-0.1,0.4-1.1,0.2-1.2c-0.7-0.7,0.2-1.1,0.2-1.6c0-2.3,0-4.6-0.3-6.8c-0.3-2.1-0.7-4.2-1.9-6.1
				c-0.1-0.2,0-0.5,0-0.6c0.8-0.7,1.4-1.4,2.1-2c0,0,0,0,0,0c0.1,0.1,0.3,0.3,0.4,0.4c0.1-0.1,0.1-0.1,0.2-0.2
				c-0.1-0.1-0.3-0.3-0.5-0.4c0-0.3,0-0.6,0-1.2c0,0,0.1,0.1,0.1,0.1C322.9,81.2,322.3,81,322.1,80.6z M319.5,81.6
				c-0.1,0-0.2,0-0.3,0c0-0.4,0-0.7,0-1.1c0.1,0,0.2,0,0.3,0C319.5,80.9,319.5,81.3,319.5,81.6z M320.5,82.2
				c0.1,0.1,0.1,0.2,0.2,0.4c0,0-0.1,0.1-0.2,0.2c-0.1-0.1-0.1-0.2-0.2-0.4C320.3,82.3,320.4,82.2,320.5,82.2z M320.3,83.7
				c0-0.1,0-0.2,0-0.3c0.3-0.1,0.6-0.1,0.9-0.2c0,0.2,0,0.3,0,0.5C320.9,83.7,320.6,83.7,320.3,83.7z M321.8,82.6
				c-0.1,0-0.2,0-0.3,0c-0.1-0.3-0.1-0.6-0.2-0.9c0.2,0,0.3,0,0.5,0C321.8,82,321.8,82.3,321.8,82.6z"/>
			<path class="st5" d="M385.1,80.7c-2.1-3.4-4.8-6-8.3-7.8c-3.5-1.7-7.2-2.6-11.3-2.6l-41,0.1c0,0.1,0,0.1,0,0.2
				c-0.4,2-0.4,3.9-0.5,5.8c0,0.8-0.4,1.7-0.5,2.5c-0.3,1.9-0.1,2.6,1.3,4.4c-0.8-0.3-1.2-0.4-1.6-0.6c0.2,0.4,0.7,0.5,1,0.9
				c1.2,1,1.6,2.1,1.5,3.4c1.1,0.5,1.5,1.9,2.6,2.4c0.3,0.1,0.2,0.8-0.4,0.9c-0.4-1.3-1.9-1.1-2.5-2.2c-0.3,0.3-0.4,0.5-0.5,0.6
				c-0.4-0.7-0.7-1.5-1.2-2.5v2.5c0.8,0.9,1.4,1.5,2.1,2.2h-1.3c0.5,0.7,0.9,1.1,1.2,1.6c0.1-0.1,0.2-0.3,0.4-0.4
				c0.1,0.1,0.1,0.1,0.2,0.2c-0.1,0.1-0.3,0.3-0.4,0.4c0,0,0,0,0,0c0.2,0.6,0.4,1.3,0.5,1.9c-0.4,0.2-0.7,0.4-1.1,0.5
				c0.1,0.3,0.1,0.5,0.2,0.8c0.3-0.2,0.4-0.4,0.6-0.5c0.3,0.2,0.6,0.3,0.9,0.5v4.4c0,0.6-0.3,1.6,0.1,1.9c0.7,0.5-0.2,1.1,0.2,1.4
				c0.6,0.6-0.4,0.8-0.3,1.3c0.2,0.6,0.3,1.2,0.4,1.7c0.1,0.9-0.5,1.9-0.9,3.1c0.4,0.3,1,0.8,1.6,1.3c-0.6,0.4-1.2,0.7-1.6,1v2.8
				c2.4,1.7,4.6,3.8,7.6,3.7c0.1,0,0.2,0.1,0.3,0.1v-1c0-0.4,0.2-0.8,0.5-1.1c0.3-0.3,0.7-0.5,1.1-0.5l0.7,0
				c-0.1-0.1-0.2-0.2-0.3-0.3c0.3,0,0.6,0,1.1,0c0,0.1,0,0.2,0,0.3l2.7,0c1.7-0.7,2.3-2.7,3.9-3.5c0.8-0.4,1.2-1.3,1-2.2
				c3.2-0.3,3.7-0.6,4.7-2.3c0.4,0,0.7,0,1.1,0c1.1-1.1,2.2-2.2,3.2-3.3c2.1,0,4.1,0.1,6-0.9c0.8-0.4,1.9-0.2,3.2-0.3
				c-0.2-0.9-0.2-1.9-0.6-2.7c-0.8-1.6-0.7-3.2-0.2-4.7c-0.1,0-0.1,0-0.2,0l-25.7,0.1c-0.4,0-0.7-0.1-0.9-0.3
				c-0.3-0.2-0.4-0.4-0.4-0.7v-3.1c0-0.3,0.1-0.5,0.4-0.7c0.2-0.2,0.5-0.3,0.9-0.3h25.7c0.9,0,1.6,0.2,2.2,0.6
				c0.6-1.2,1.2-2.5,1.6-3.8c0.1-0.2,0.3-0.3,0.5-0.4c0-1.8,0.1-2,1.6-2.2c0,0,0,0-0.1-0.1c0.1-0.2,0.3-0.3,0.4-0.5
				c0.1,0.1,0.1,0.1,0.2,0.2c-0.1,0.1-0.3,0.3-0.4,0.4c0,0,0,0-0.1-0.1c-0.6,0.7-0.5,1.9-1.6,2.2c0.1,1.9-0.5,3.6-1.4,5.1
				c0.1,0.3,0.2,0.6,0.2,1c0,0.7-0.3,1.3-0.8,1.8c-0.3,0.2-0.6,0.4-0.9,0.5c-0.1,0.3-0.2,0.5-0.3,0.7c-0.5,0.7,1.2,1,0.4,1.9
				c-0.6,0.6,0.4,1.3,0.3,2.1c-0.1,0.6,0.2,1.4,0.5,1.9c0.3,0.5,0.8,1,1.2,1.4c2.5,0,4.6,2,7.4,0.9c0.1-0.1,0.4-0.5,0.7-0.8
				c0,0,0,0-0.1-0.1c0.1-0.2,0.3-0.3,0.4-0.5c0.1,0.1,0.1,0.1,0.2,0.2c-0.1,0.1-0.3,0.2-0.4,0.4c0.5,0.4,1,0.8,1.5,1.3
				c-0.1,0.2-0.3,0.3-0.4,0.6c0.1,0.5,1.6,0.2,0.9,1.3c-0.5,0.1-0.8-0.8-1.5-0.2c-0.3,0.2-1-0.3-1.5-0.2c-0.6,0.1-1.1,0.4-1.6,0.7
				c-0.7,1.8,1,1.9,1.8,2.6c0.2-0.4,0.4-0.7,0.6-1.3c1.4,1.3,3.3,1.8,4.1,3.8c3.2-1.9,5.8-4.6,7.8-7.9c2.1-3.5,3.1-7.4,3.1-11.7
				C388.1,88.2,387.1,84.1,385.1,80.7z M327.6,113.9c-0.1-0.1-0.3-0.3-0.4-0.4c0,0,0,0,0.1-0.1c-0.1,0-0.3,0-0.4,0
				c0-0.4-0.1-0.7-0.1-1.1c0.1,0,0.2,0,0.4,0c0.1,0.3,0.1,0.7,0.2,1c0,0,0,0,0,0c0.1,0.1,0.3,0.3,0.4,0.4
				C327.8,113.8,327.7,113.9,327.6,113.9z M327.9,94.7C327.9,94.7,327.9,94.7,327.9,94.7c-0.4,0.4-0.7,0.7-1.1,1.1
				c0-0.3,0-0.6,0-1.1C327.2,94.7,327.6,94.7,327.9,94.7c0-0.4,0-0.7,0-1.1c-0.2-0.2-0.4-0.4-0.5-0.6c-1.1-0.1-0.1-1.3-1.2-1.9
				c0.1,0.1-0.1-0.1-0.4-0.3c0.8,0.1,1.5,0,2.2-0.6c-0.2,0.9-0.4,1.8-0.5,2.8c0.2,0.2,0.4,0.4,0.5,0.6c0.2,0.2,0.4,0.5,0.5,0.7
				C328.2,94.4,328.1,94.5,327.9,94.7z M330.2,113.9c0-0.3,0-0.6,0-0.9c0.1,0,0.2,0,0.3,0c0.1,0.3,0.1,0.6,0.2,0.9
				C330.5,113.8,330.3,113.9,330.2,113.9z M332.4,115.1c0-0.2,0-0.3,0-0.5c0.5,0,1,0,1.5,0c0,0.1,0,0.2,0,0.3
				C333.3,115,332.8,115,332.4,115.1z M348.5,103.6c0.1,0.1,0.1,0.1,0.2,0.2c-0.1,0.1-0.2,0.1-0.4,0.2c0,0-0.1-0.1-0.2-0.2
				C348.2,103.7,348.3,103.6,348.5,103.6z M336,115.5c-0.4,0-0.9,0-1.5,0C335.4,115,335.4,115,336,115.5z M344.9,86.3
				c0-0.3,0-0.6,0-0.9c0.1,0,0.2,0,0.3,0c0.1,0.3,0.1,0.6,0.2,0.9C345.2,86.3,345.1,86.3,344.9,86.3z M362.2,79.3
				c-0.1,0-0.2,0-0.3,0c0-0.4,0-0.7,0-1.1c0.1,0,0.2,0,0.3,0C362.2,78.5,362.2,78.9,362.2,79.3z M367,91.3c-0.1-0.1-0.2-0.1-0.4-0.2
				c0.1-0.1,0.1-0.2,0.2-0.2c0.1,0,0.2,0.1,0.4,0.2C367.2,91.2,367.1,91.2,367,91.3z M369.2,84.7c-0.1-0.1-0.2-0.1-0.4-0.2
				c0.1-0.1,0.1-0.2,0.2-0.2c0.1,0,0.2,0.1,0.4,0.2C369.4,84.6,369.3,84.6,369.2,84.7z M370.5,83.7
				C370.5,83.7,370.6,83.7,370.5,83.7c-0.1,0.2-0.2,0.4-0.3,0.5c-0.1-0.1-0.1-0.1-0.2-0.2c0.1-0.1,0.2-0.2,0.3-0.3
				c-0.1,0-0.1,0-0.2,0.1c1-1,1.7-1.6,2.3-2.3C372.6,82.7,372.3,83.1,370.5,83.7z M376.7,79.3c0-0.2,0-0.3,0-0.5c0.3,0,0.6,0,0.9,0
				c0,0.1,0,0.2,0,0.3C377.3,79.1,377,79.2,376.7,79.3z M378.5,110.7c-0.1-0.1-0.1-0.2-0.2-0.4c0.1-0.1,0.1-0.1,0.2-0.2
				c0.1,0.1,0.1,0.2,0.2,0.4C378.6,110.5,378.5,110.6,378.5,110.7z M378.8,77.7c-0.1,0.1-0.3,0.3-0.4,0.4c-0.1-0.1-0.1-0.1-0.2-0.2
				c0.1-0.1,0.3-0.3,0.4-0.4c0.1-0.1,0.3-0.3,0.4-0.4c0.1,0.1,0.1,0.1,0.2,0.2C379.1,77.4,378.9,77.5,378.8,77.7z"/>
			<path class="st5" d="M313.5,111.2c0.1,0.3,0.3,0.7,0.4,1.1C314.2,111.4,314.1,110.9,313.5,111.2z"/>
			<path class="st5" d="M341.1,116l3.2,0c0-0.1-0.1-0.1-0.1-0.2C343.1,115.4,342.1,115.6,341.1,116z"/>
			<path class="st5" d="M315.9,112.4c0,0-0.1-0.1-0.1-0.1c-0.1,0.1-0.3,0.3-0.4,0.4c0.1,0.1,0.1,0.1,0.2,0.2
				c0.1-0.1,0.3-0.3,0.3-0.5C315.8,112.3,315.9,112.3,315.9,112.4c0.1-0.1,0.3-0.2,0.4-0.4c-0.1-0.1-0.1-0.1-0.2-0.2
				C316,112,315.9,112.1,315.9,112.4z"/>
			<path class="st5" d="M324.7,117.1c0,0,0.1,0.1,0.2,0.2c0.1-0.1,0.1-0.2,0.2-0.4c-0.1-0.1-0.1-0.1-0.2-0.2
				C324.8,116.8,324.7,117,324.7,117.1z"/>
			<path class="st5" d="M316.9,113.7c-0.1-0.1-0.2-0.1-0.4-0.2c-0.1,0.1-0.1,0.1-0.2,0.2c0.1,0.1,0.2,0.1,0.4,0.2
				C316.8,113.9,316.9,113.8,316.9,113.7z"/>
			<path class="st5" d="M313.8,110.5c0,0,0.1,0.1,0.2,0.2c0.1-0.1,0.1-0.2,0.2-0.4c-0.1-0.1-0.1-0.1-0.2-0.2
				C313.9,110.2,313.8,110.3,313.8,110.5z"/>
			<path class="st5" d="M369,113.2c-0.1-2.3-2-2.7-3.7-3.2c0.1-0.7,0.2-1.3,0.4-2c-0.6,0-1.1,0-1.8,0c0.2,0.7,0.5,1.3,0.8,2.2
				c-0.7-0.2-1.1-0.4-1.4-0.5c-1.2,0.1-2.4,0.1-3.4,0.5c-1.1,0.5-2.1-0.3-3.1-0.1c-1.1,0.2-2.3,0-3.5,0c-0.8,1.3-1.6,2.6-2.2,3.6
				c-1.5,0.3-2.6,0.6-3.8,0.9c-1.3,0.4-1.9,1.2-2.3,2.4l20-0.1c3.2,0,6.3-0.7,9.2-2c-0.7-0.2-1.4-0.6-2.1-0.9
				C371.1,113.8,370.1,113.6,369,113.2z M363.2,114.6c-0.1-0.1-0.1-0.1-0.2-0.2c0.1-0.1,0.1-0.2,0.2-0.4c0.1,0.1,0.2,0.1,0.2,0.2
				C363.3,114.4,363.2,114.5,363.2,114.6z M364.7,115.6c-0.1-0.1-0.1-0.1-0.2-0.2c0.1-0.1,0.2-0.1,0.4-0.2c0,0,0.1,0.1,0.2,0.2
				C365,115.5,364.9,115.6,364.7,115.6z"/>
			<path class="st5" d="M333.7,120.2c0,0-0.2,0.1-0.5,0.2c0.2,0.4,0.4,0.8,0.8,1.4c-0.3,0.2-0.8,0.4-1.3,0.7
				c0.1,0.1,0.2,0.2,0.2,0.4c0.4-0.1,0.8-0.3,1.1-0.4v-1.8C334,120.5,333.8,120.3,333.7,120.2z"/>
			<path class="st5" d="M325.2,87.3c0.1,0.1,0.1,0.1,0.2,0.2c0.1-0.1,0.3-0.3,0.4-0.5c0,0,0,0-0.1-0.1
				C325.5,87,325.3,87.2,325.2,87.3z"/>
			<path class="st5" d="M312.3,111.7c-0.2-0.3-0.5-0.5-0.8-0.8c0,0,0,0,0,0v0.7C311.7,111.8,311.9,111.8,312.3,111.7z"/>
			<path class="st5" d="M332.2,122.1v-1.9c0,0,0-0.1-0.1-0.1c-0.8-0.2-1.6-0.4-2.5-0.7c0.2,0.6,0.4,1,0.7,1.9
				c-0.7-0.3-1.3-0.4-1.4-0.6c-0.4-1-1.3-1.2-1.9-1.9c-0.9-0.9-1.6-0.5-2.4,0.4c0.3,1.2-0.5,2.5,0.5,3.7c-1.1,1.3,0.5,2.5,0.1,3.9
				c-0.3,1.3-0.1,2.7-0.5,4.1c-0.2-1.4-0.6-2.7-0.7-4.1c-0.1-1.5,0.3-3.1-0.1-4.4c-0.5-1.3,0-2.8-1-4c-0.1-0.1,0-0.4,0.1-0.5
				c0.8-0.4-0.1-0.8,0.1-1.2c0.8-1.5,0.2-3.2,0.4-4.8c0-0.3-0.4-0.7-0.7-1.2c-0.5-0.2-1.2-0.4-2.1-0.7c-0.3,0.1-0.6,0.3-1,0.5
				c0-0.6-0.6-0.7-0.8-0.5c-0.4,0.4-0.5,0.9,0.3,1c-0.2,0.2-0.4,0.5-0.7,0.9c-0.5-1-0.8-1.7-1.2-2.5c-0.3,0.3-0.6,0.6-1,1.1
				c0.4,0.5,0.8,0.9,1.2,1.4c-0.1,0.1-0.3,0.3-0.4,0.5c0.7,0.8,1.3,0.1,2.2-0.3v1.1c-0.8-0.1-1.3,0.3-1.7,1c-0.4,0.7,1,1.3,0.1,2.1
				c-0.2,0.2,0.3,1.3,0.4,2c-0.5,1-1.3,2-1.1,3.3c0,0.3-0.1,0.7-0.3,1c-1.2,2.1-1.5,4.5-1.3,6.9c1.3,1.5,1.4,3.3,0.4,5
				c-0.4,0.7-0.8,1.4-1.1,2.2h7.7c0-0.1,0-0.1,0-0.2c0.4,0,0.7,0,1.1,0c0,0.1,0,0.1,0,0.2h9c0.4,0,0.8-0.2,1.1-0.5
				c0.3-0.3,0.5-0.7,0.5-1.1v-11.3c-1.1-0.4-2.2-0.9-3.5-1.3C331.5,122.3,331.8,122.2,332.2,122.1z M319.1,111.2
				c0.2-0.2,0.4-0.4,0.5-0.6C319.5,110.8,319.3,111,319.1,111.2z M318.9,113.8c0.4-0.4,0.7-0.7,1.2-1.1c0,0.6,0.1,0.8,0.1,1.2
				C319.8,113.9,319.5,113.9,318.9,113.8z M321.1,114.5c0.5-0.5,0.8-0.8,1.1-1.1C322.7,114.4,322.2,114.5,321.1,114.5z M321,112
				c0.6-0.2,1-0.3,1.3-0.4C322.6,112.3,322.2,112.5,321,112z M323.1,134.9c0-0.2,0-0.3,0-0.5c0.3,0,0.6,0,0.9,0c0,0.1,0,0.2,0,0.3
				C323.7,134.8,323.4,134.8,323.1,134.9z M323.6,133.1c0-0.1,0-0.2,0-0.3c0.3-0.1,0.6-0.1,0.9-0.2c0,0.2,0,0.3,0.1,0.5
				C324.2,133.1,323.9,133.1,323.6,133.1z"/>
			<path class="st5" d="M322,79.2c0.1,0,0.2-0.1,0.4-0.2c-0.1-0.1-0.1-0.2-0.2-0.2c-0.1,0-0.2,0.1-0.4,0.2
				C321.9,79,322,79.2,322,79.2z"/>
			<path class="st5" d="M313.1,130.6c0.2-2.7-0.3-5.2,0.9-8c0.2-0.1,0.8-0.7,1.1-0.9c0.3-2.6,0.5-4.8,0.8-7.2
				c-1.5-0.6-2.9-1.2-4.4-1.8v22.6c0,0.4,0.2,0.8,0.5,1.1c0.2,0.2,0.5,0.4,0.8,0.4c1-1.4,1.8-2.9,2-4.7
				C314.1,131.6,313.5,131.1,313.1,130.6z"/>
			<path class="st5" d="M323.4,71.9c-0.1-0.1-0.1-0.2-0.2-0.4c-0.1,0.1-0.2,0.1-0.2,0.2c0,0.1,0.1,0.2,0.2,0.4
				C323.3,72,323.3,72,323.4,71.9z"/>
			<path class="st5" d="M322.7,70.5C322.7,70.4,322.7,70.4,322.7,70.5L322.7,70.5C322.6,70.4,322.7,70.4,322.7,70.5z"/>
			<path class="st5" d="M372.8,111.4c0,0.1,0,0.2,0,0.3c0.3,0,0.6,0,0.9,0c0-0.2,0-0.3,0-0.5C373.4,111.3,373.1,111.3,372.8,111.4z"
				/>
			<path class="st5" d="M373.2,106.1c0-0.1-0.1-0.2-0.2-0.4c-0.1,0.1-0.2,0.1-0.2,0.2c0,0.1,0.1,0.2,0.2,0.4
				C373,106.2,373.2,106.1,373.2,106.1z"/>
			<path class="st5" d="M430.8,115.8c0,0.1,0.1,0.2,0.2,0.4c0.1-0.1,0.1-0.1,0.2-0.2c-0.1-0.1-0.1-0.2-0.2-0.4
				C430.9,115.7,430.8,115.8,430.8,115.8z"/>
			<path class="st5" d="M396.3,136.9h1.1c0-0.1,0-0.2,0-0.4C396.9,136.6,396.4,136.3,396.3,136.9z"/>
			<path class="st5" d="M426.2,131.6c0.6-2.7,1.6-5.3,3.7-7.3c0.2-2.3,0.2-2.3-1.1-4.3c-1.1,0.2-2.3-0.4-3.5,0.5
				c-0.2,0.2-0.9-0.5-1.4-0.5c-1.4,0.1-2.8-0.4-4.2,0.4c-0.5,0.3-1.4-0.3-2,0.5c-1.4-1.2-3.2,0.1-4.6-0.8c-0.8-0.5-1.1,1-1.8,0
				c-0.3-0.4-1.1-0.5-1.6-0.6c-0.3-0.1-0.7,0.2-1,0.2c-1.2,0-2.4,0.1-3.6,0c-1.7-0.2-3.2,0.5-4.8,1.1c-0.2-0.2-0.5-0.4-0.9-0.7
				c-0.3,0.2-0.7,0.4-1.2,0.7c-0.3-0.3-0.7-0.6-1.2-1.1c0.7-0.1,1.2-0.2,1.8-0.3c0-0.5,0-0.9,0-1.3c-0.6,0-0.9-1-1.8-0.4
				c-0.4,0.3-1.2,0.1-1.7,0.2c-0.9-1.5-1.6-1.8-3-1.4c-0.5,0.1-1,0.3-1.5,0.2c-1.9-0.3-2.7-0.3-3.6,0.2l-0.1,13.7
				c0.1-0.1,0.2-0.1,0.2-0.2c0.1-0.1,0.3-0.3,0.4-0.4c0.1,0.1,0.1,0.1,0.2,0.2c-0.1,0.1-0.3,0.3-0.4,0.4c-0.1,0.1-0.2,0.3-0.3,0.4
				l0,3.3c0.2-0.1,0.5-0.2,0.7-0.4c0.1,0.2,0.1,0.5,0.2,0.7c-0.2,0.2-0.3,0.4-0.4,0.4c-0.2,0-0.3,0-0.5,0l0,0.7c0,0.4,0.1,0.7,0.4,1
				c0.3,0.3,0.6,0.4,0.9,0.4l5.1,0c-0.1-0.3-0.1-0.6-0.2-0.9c0.4,0.2,0.7,0.4,1.1,0.5c0,0,0,0-0.1,0.1c0.1,0.1,0.2,0.2,0.3,0.3
				l0.3,0c0,0,0,0,0,0c-0.1-0.1-0.3-0.3-0.5-0.4c-0.1-0.4,0.2-1-0.4-1c-0.2,0-0.5,0.3-0.7,0.5c-0.2-0.1-0.4-0.1-0.4-0.2
				c0.1-1.6-0.8-2.2-2.4-2.1c0.3-0.4,0.5-0.6,0.7-0.8c-0.3-0.1-0.7-0.2-1.1-0.4c-0.1-1,0.4-2.3-1.2-2.8c0.7-0.4,1.4-1,1.5-0.8
				c1,0.8,1.9-0.7,3,0.3c-0.2,1.4,0.4,3-0.3,4.7c0.5-0.4,1.1-0.7,1.7-1.2c0.5,0.9,2,1.2,1.8,2.7c0,0,0,0-0.1-0.1
				c-0.1,0.1-0.3,0.3-0.5,0.4c0.1,0.1,0.1,0.1,0.2,0.2c0.1-0.1,0.3-0.3,0.4-0.5c0.8,0,0.4,0.7,0.5,1.1c0.2,0.1,0.3,0.2,0.4,0.4
				l20.8,0.2c2.5,0,4.9-0.5,7.1-1.4C425.2,134.6,425.9,133,426.2,131.6z M387.7,120.8c-0.1-0.1-0.1-0.2-0.2-0.4c0,0,0.1-0.1,0.2-0.2
				c0.1,0.1,0.1,0.2,0.2,0.4C387.9,120.7,387.8,120.8,387.7,120.8z M389.8,133.5c0.1,0.1,0.2,0.1,0.2,0.2c0,0.1-0.1,0.2-0.2,0.4
				c-0.1-0.1-0.1-0.1-0.2-0.2C389.6,133.8,389.7,133.6,389.8,133.5z M389,131c-0.1,0.1-0.2,0.1-0.4,0.2c0,0-0.1-0.1-0.2-0.2
				c0.1-0.1,0.2-0.1,0.4-0.2C388.8,130.9,388.9,131,389,131z"/>
			<path class="st5" d="M433.7,125c-1,0.2-1.9,0.7-2.6,1.9c-1.5,2.5-2.8,4.8-3.4,7.4c-0.1,0.6-0.4,1.1-0.6,1.6c0.7-0.3,1.3-0.6,2-1
				c3.1-1.8,5.4-4.2,7.1-7.3l0.4-0.6l0.2-0.4C436,125.5,435,124.8,433.7,125z"/>
			<path class="st5" d="M395.2,115.2c0,0.1,0.1,0.2,0.2,0.4c0.1-0.1,0.2-0.1,0.2-0.2c0-0.1-0.1-0.2-0.1-0.3h-0.1
				C395.3,115.2,395.2,115.2,395.2,115.2z"/>
			<path class="st5" d="M408.4,118c0,0.1,0.1,0.2,0.2,0.4c0.1-0.1,0.2-0.1,0.2-0.2c0-0.1-0.1-0.2-0.2-0.4
				C408.5,117.9,408.3,118,408.4,118z"/>
			<path class="st5" d="M395.4,134.3c-0.1,0.1-0.2,0.1-0.2,0.2c0,0.1,0.1,0.2,0.2,0.4c0.1-0.1,0.2-0.1,0.2-0.2
				C395.5,134.6,395.5,134.5,395.4,134.3z"/>
			<path class="st5" d="M393.5,134.5c0,0.1,0,0.2,0,0.3c0.3,0,0.6,0,0.9,0c0-0.2,0-0.3-0.1-0.5C394.1,134.4,393.8,134.5,393.5,134.5
				z"/>
			<path class="st5" d="M431.3,114.6c0.3,0.6,0.6,1,0.8,1.5c0.3-0.5,0.5-1,0.7-1.5C432.3,114.6,431.8,114.6,431.3,114.6z"/>
			<path class="st5" d="M433.4,114.2c-0.1-0.1-0.1-0.1-0.2-0.2c-0.1,0.1-0.2,0.3-0.3,0.5c0,0,0,0,0,0
				C433.1,114.4,433.2,114.3,433.4,114.2z"/>
			<path class="st5" d="M407.3,116.9c0.9-0.9,1.6-1.6,2.2-2.3c1.2-0.2,2.4-0.5,3.6-0.6c1.3-0.1,2.5,0,3.8,0c0.5,0,0.9,1,1.4,0
				c0.5,0.8,1.3,0.5,2,0.5c0.6,0,1.3,0,1.9,0c0.6,0,1.3,0,1.9,0c0.4,0,0.8-0.2,1.4-0.3c0.9,0.5,1.9,1.1,2.9,1.6c1.3-1,2-2.5,3.7-2.5
				c2-1.8,3.4-3.9,4-6.6c0.5-1.9,0.7-3.9,2.2-5.4c-0.2-0.9,1.5-0.3,1.1-1.4c2.8-1.6,4.5-4.4,6.9-6.4c0.9-0.8,1.9-1.5,3-2.1
				c0.1,0,0.2-0.1,0.2-0.1l8.2-20.1c-0.2-0.6-0.6-0.9-1.2-0.9h-20.4c-0.6,0-1,0.3-1.2,0.9l-12.4,30.9c-4.5-11.2-6.9-17.2-7.3-18.2
				l-5.1-12.8c-0.2-0.6-0.6-0.9-1.2-0.9h-14.4c-0.1,0.1-0.1,0.2-0.2,0.3c0-0.1-0.1-0.2-0.1-0.3h-5.6c-0.6,0-1,0.3-1.2,0.9l1.1,2.7
				c0,0,0.1,0.1,0.2,0.2c0,0-0.1,0-0.1,0l16.8,41h-1.9c0.6,0.3,1.1,0.6,1.6,1C405.6,116.6,406.6,116.7,407.3,116.9z M389.9,73.8
				c-0.1-0.1-0.1-0.2-0.2-0.4c0,0,0.1-0.1,0.2-0.2c0.1,0.1,0.1,0.2,0.2,0.4C390.1,73.6,390,73.7,389.9,73.8z M393.1,70.9
				c-0.1-0.1-0.1-0.1-0.2-0.2c0.1-0.1,0.2-0.1,0.4-0.2c0,0,0.1,0.1,0.2,0.2C393.4,70.8,393.3,70.9,393.1,70.9z"/>
			<path class="st5" d="M447.3,94.3c-1.3,1.1-2.2,2.7-3.5,4.2c0,0-0.4,0-1,0c-1.7,2-3.4,4.1-5.1,6.2c0,0.9,0.1,1.6,0,2.3
				c-0.1,0.8-0.2,1.6-0.6,2.2c-1,1.7-2.2,3.3-3.3,5c0.2,0.2,0.4,0.4,0.6,0.7c-0.5,0.3-1,0.7-1.6,1.1c-0.4,1.4,0.8,2.5,1.7,3.2
				c0.9,0.8,1.8,1.5,2.7,2.2l11.5-28.1C448.2,93.6,447.7,93.9,447.3,94.3z"/>
			<path class="st5" d="M417.9,118.5c-0.1,0-0.2,0.1-0.4,0.2c0.1,0.1,0.1,0.1,0.2,0.2c0.1-0.1,0.2-0.1,0.4-0.2
				C418,118.6,418,118.5,417.9,118.5z"/>
			<path class="st5" d="M414.4,116.8c0,0.3,0,0.6,0,0.9c0.2,0,0.3,0,0.5,0c-0.1-0.3-0.1-0.6-0.2-0.9
				C414.5,116.8,414.5,116.8,414.4,116.8z"/>
			<path class="st5" d="M418,117.5c0,0-0.1-0.1-0.2-0.2c-0.1,0.1-0.1,0.2-0.2,0.4c0.1,0.1,0.1,0.1,0.2,0.2
				C417.9,117.7,418,117.6,418,117.5z"/>
			<path class="st5" d="M425.3,116.3c0,0.1,0.1,0.2,0.2,0.4c0.1-0.1,0.1-0.1,0.2-0.2c-0.1-0.1-0.1-0.2-0.2-0.4
				C425.4,116.2,425.3,116.3,425.3,116.3z"/>
			<path class="st5" d="M426.1,118.5c-0.1,0-0.2,0.1-0.4,0.2c0.1,0.1,0.1,0.1,0.2,0.2c0.1-0.1,0.2-0.1,0.4-0.2
				C426.2,118.6,426.2,118.5,426.1,118.5z"/>
			<path class="st5" d="M409.8,117.4c0.1,0.4,0.2,0.7,0.3,1.3c0.6-0.4,1-0.8,1.7-1.3C410.9,117.4,410.5,117.4,409.8,117.4z"/>
			<path class="st5" d="M411.5,118.6c0.1,0.1,0.2,0.1,0.4,0.2c0,0,0.1-0.1,0.2-0.2c-0.1-0.1-0.2-0.1-0.4-0.2
				C411.7,118.5,411.6,118.6,411.5,118.6z"/>
			<path class="st5" d="M390.9,130.1c0,0.1,0.1,0.2,0.2,0.4c0.1-0.1,0.2-0.1,0.2-0.2c0-0.1-0.1-0.2-0.2-0.4
				C391,130,390.8,130.1,390.9,130.1z"/>
			<path class="st5" d="M521.4,133.6c-0.1-0.1-0.1-0.2-0.2-0.4c-0.1,0.1-0.2,0.1-0.2,0.2c0,0.1,0.1,0.2,0.2,0.4
				C521.2,133.7,521.3,133.7,521.4,133.6z"/>
			<path class="st5" d="M468.7,134.3c0.2,0,0.3-0.1,0.5-0.1c-0.3-0.1-0.6-0.3-1.1-0.5C468.5,134.1,468.7,134.3,468.7,134.3z"/>
			<path class="st5" d="M521.3,135c-0.1,0-0.2,0.1-0.4,0.2c0.1,0.1,0.1,0.2,0.2,0.2c0.1,0,0.2-0.1,0.4-0.2
				C521.4,135.1,521.3,135,521.3,135z"/>
			<path class="st5" d="M522.8,133.2c-0.2-0.2-0.4-0.4-0.9-0.8c0.2,0.8,0.3,1.2,0.4,1.8c-0.1,0.2-0.3,0.5-0.5,0.8
				c0.2,0.2,0.4,0.4,0.5,0.4c0.8,0,1.7,0.1,2.5,0.3c1.2-0.4,2.4-0.9,3.5-1.5c0.1-0.1,0.2-0.1,0.3-0.2c0-0.2,0-0.5,0-0.7
				c0.1,0,0.2,0,0.3,0c0,0.2,0.1,0.3,0.1,0.5c0.4-0.3,0.9-0.5,1.3-0.8C527.8,132.6,525.3,132.4,522.8,133.2z M524.5,133.7
				c-0.1,0-0.2-0.1-0.4-0.2c0.1-0.1,0.1-0.1,0.2-0.2c0.1,0.1,0.2,0.1,0.4,0.2C524.7,133.6,524.6,133.7,524.5,133.7z M527.2,133.8
				c0.1,0.1,0.1,0.2,0.2,0.4c-0.1,0.1-0.1,0.1-0.2,0.2c-0.1-0.1-0.1-0.2-0.2-0.4C527,133.9,527.1,133.9,527.2,133.8z"/>
			<path class="st5" d="M505.5,113.2c0-0.3-0.1-0.6-0.3-0.9c0,0,0,0,0,0c-0.1,0-0.2,0.1-0.2,0.1c0.1,0.3,0.1,0.5,0.2,0.8H505.5z"/>
			<path class="st5" d="M479.4,134.5c0.1,0.1,0.1,0.2,0.2,0.4c0.1-0.1,0.2-0.1,0.2-0.2c0-0.1-0.1-0.2-0.2-0.4
				C479.6,134.4,479.5,134.5,479.4,134.5z"/>
			<path class="st5" d="M464.9,136.9h1.2c-0.3-0.1-0.5-0.1-0.9-0.2C465.2,136.8,465.1,136.8,464.9,136.9z"/>
			<path class="st5" d="M493.9,135.2c1.1,0.4,1.5,0.3,1.3-0.7C494.7,134.7,494.4,134.9,493.9,135.2z"/>
			<path class="st5" d="M462.1,134.8c-0.4-0.2-0.6-0.5-1-0.9l0,1c0,0.6,0.2,1,0.5,1.4c0.3,0.4,0.8,0.6,1.4,0.6h1.2
				c-0.2-0.6-0.3-1-0.5-1.5C463.4,134.7,462.6,135.1,462.1,134.8z"/>
			<path class="st5" d="M518.5,133.6c0.4,0.6,0.6,0.8,0.8,1.1c0.2,0.3,0.5,0.5,0.9,0.9C520.4,134.2,519.8,133.9,518.5,133.6z"/>
			<path class="st5" d="M474.4,136.8c-0.1-0.1-0.1-0.2-0.2-0.2c-0.1,0-0.2,0.1-0.4,0.2c0,0,0,0.1,0.1,0.1h0.3
				C474.3,136.9,474.4,136.8,474.4,136.8z"/>
			<path class="st5" d="M468.1,136.5c-0.5-1.7-2.2-1.4-3.5-2.1c-0.2,1.7,1.6,1.4,2.1,2.5h2.2c0-0.3-0.1-0.6-0.1-1
				C468.6,136.2,468.4,136.3,468.1,136.5z"/>
			<path class="st5" d="M484.5,136c-0.1-0.1-0.3-0.3-0.4-0.4c-0.1,0-0.1,0-0.2-0.1c-0.3,1.1-1.7,0.7-2.3,1.4h4.4
				c-0.3-0.5-0.6-1-0.9-1.5C484.9,135.6,484.7,135.8,484.5,136z"/>
			<path class="st5" d="M492.4,133.2C492.4,133.2,492.5,133.3,492.4,133.2c0.2,0,0.4-0.2,0.5-0.3c-0.1-0.1-0.1-0.1-0.2-0.2
				C492.7,132.9,492.5,133,492.4,133.2c-0.3,0-0.6,0-0.9,0c-0.2,0.5-0.3,0.8-0.4,1.1c-0.8,0-1.5,0-2,0c-0.6,0.5-1.2,1-1.7,1.4
				c0.2,0.4,0,0.8,0,1.2h1.6c1-0.7,2.1-1.4,3.3-1.7C491.6,134.5,492.8,133.9,492.4,133.2z"/>
			<path class="st5" d="M492.4,136.9h2.5c-0.1,0-0.1,0-0.2,0C493.5,136.6,493.4,136.5,492.4,136.9z"/>
			<path class="st5" d="M508.3,97.4c-0.5,0.9-0.4,1.8-0.7,2.7c-0.6,1.6-0.5,2.9,0.2,4.6c-0.2,0.3-0.4,0.6-0.6,0.9
				c0.2,0.3,0.4,0.7,0.7,1.2c-0.2,0.2-0.4,0.5-0.6,0.8c0.1,0.2,0.3,0.3,0.5,0.5c-0.8,0.4,0.2,1.4-0.5,1.8c0.3,1-0.5,1.4-1,2
				c-0.1,0.4-0.1,0.8,0,1.2h6.2c0.8,0,1.5,0.2,2.1,0.7c0.6,0.4,0.9,1.1,0.9,1.9c0,0.8-0.3,1.5-0.9,2c-0.6,0.5-1.3,0.7-2.1,0.7h-2.6
				c0.4,0.2,0.2,0.7,0.2,1c0,0,0,0,0,0c1.9,0.3,3.5,1.4,4.9,3.1c0,0.6,0,1.5,0,2.4c1.8,1.4,2.8,3.3,4.4,4.9c0.5,0.5,0.8,1.1,1.3,1.7
				c1.5,0,3,0,4.4,0c1.1,0,2.3-0.1,3.3,0.5c0.5,0.3,1-0.7,1.8,0c0.3,0.2,0.8,0.2,1.3,0.1c1.9-1.5,3.5-3.3,4.8-5.5
				c1.9-3.2,2.8-6.7,2.8-10.7c0-6.9-2-12.1-6-15.7c-4-3.6-9.2-5.4-15.5-5.4l-9.7,0C508.1,95.8,508.7,96.6,508.3,97.4z M538.7,116.2
				c0.1,0.1,0.1,0.2,0.2,0.4c0,0-0.1,0.1-0.2,0.2c-0.1-0.1-0.1-0.2-0.2-0.4C538.5,116.3,538.6,116.2,538.7,116.2z M538,115.1
				c0.1,0.1,0.2,0.1,0.4,0.2c-0.1,0.1-0.1,0.2-0.2,0.2c-0.1,0-0.2-0.1-0.4-0.2C537.9,115.3,538,115.2,538,115.1z M537.8,111
				c0,0.8,0,1.2,0,1.7c-0.7-0.5-0.7-0.5-1.1-1.2C537,111.4,537.3,111.2,537.8,111z M521.2,128.3c0.1,0.1,0.1,0.2,0.2,0.4
				c-0.1,0.1-0.1,0.1-0.2,0.2c-0.1-0.1-0.1-0.2-0.2-0.4C521,128.4,521.1,128.3,521.2,128.3z M520.2,106.3c0.1,0.1,0.1,0.1,0.2,0.2
				c-0.1,0.1-0.2,0.1-0.4,0.2c0,0-0.1-0.1-0.2-0.2C519.9,106.5,520,106.4,520.2,106.3z M518.2,106.9c0.4,0,0.7,0,1.1,0
				c0,0.1,0,0.2,0,0.3c-0.4,0-0.7,0-1.1,0C518.2,107.1,518.2,107,518.2,106.9z M517.4,104.9c0.2,0.5,0.4,0.9,0.6,1.2
				C517.4,106.3,516.7,106.5,517.4,104.9z M515.2,105.7c0.1,0.1,0.2,0.1,0.2,0.2c0,0.1-0.1,0.2-0.2,0.4c-0.1-0.1-0.1-0.1-0.2-0.2
				C515,105.9,515.1,105.8,515.2,105.7z M513.9,105.8c0.1,0,0.2,0,0.3,0c0.1,0.3,0.1,0.6,0.2,0.9c-0.2,0-0.3,0-0.5,0
				C513.9,106.4,513.9,106.1,513.9,105.8z M513,96.9c0.1,0.1,0.1,0.2,0.2,0.4c0,0-0.1,0.1-0.2,0.2c-0.1-0.1-0.1-0.2-0.2-0.4
				C512.8,97,512.9,97,513,96.9z M509,105.8c0.1,0,0.2,0.1,0.4,0.2c-0.1,0.1-0.1,0.1-0.2,0.2c-0.1-0.1-0.2-0.1-0.4-0.2
				C508.9,105.9,509,105.8,509,105.8z"/>
			<path class="st5" d="M480.3,135.4c-0.4,0.1-0.6,0.1-1.2,0.2c0.3,0.4,0.6,0.7,1,1.3h0.1C480.3,136.1,480.3,135.8,480.3,135.4z"/>
			<path class="st5" d="M501.5,134.5c-1.9-0.2-3.8-0.5-5.8-0.8c0.1,0.9,0.1,1.6,0.1,2.4c1.1-0.3,2-0.5,2.9-0.7
				c0.3,0.2,0.6,0.4,0.8,0.6c0.3-0.1,0.4-0.2,0.6-0.3c0.1-0.1,0.3-0.2,0.4-0.2c0.3,0.5,0.2,1.7,1.3,0.7
				C501.6,135.6,501.2,135,501.5,134.5z"/>
			<path class="st5" d="M491.1,136.9h1c-0.1-0.3-0.2-0.5-0.3-0.8C491.5,136.4,491.3,136.7,491.1,136.9z"/>
			<path class="st5" d="M510.3,134.2c-0.5-0.2-0.9-0.3-1.4-0.5c0,0.7,0,1.1,0,1.8c1.3-0.3,2.5-0.5,3.7-0.8c0-0.3,0-0.6,0-1
				C511.8,133.9,510.9,133.4,510.3,134.2z"/>
			<path class="st5" d="M506.3,134c-0.3,0.2-0.6,0.6-0.9,1.1c0.4,0.4,0.8,0.7,0.9,0.8c0.8-0.2,1.4-0.5,2.2-0.7
				C508,133.9,507.3,133.5,506.3,134z"/>
			<path class="st5" d="M513.6,134.4c-0.1,0-0.2,0.1-0.4,0.2c0.1,0.1,0.1,0.1,0.2,0.2c0.1-0.1,0.2-0.1,0.4-0.2
				C513.7,134.6,513.7,134.4,513.6,134.4z"/>
			<path class="st5" d="M472.8,136.3c0.1,0.1,0.2,0.1,0.4,0.2c0,0,0.1-0.1,0.2-0.2c-0.1-0.1-0.2-0.1-0.4-0.2
				C472.9,136.1,472.8,136.2,472.8,136.3z"/>
			<path class="st5" d="M515.5,135.1c0,0.1-0.1,0.4-0.2,0.7c-0.2,0-0.5,0.2-0.7,0.1c-2.2-1.2-4.2,0.2-6.3,0.3
				c-1.2,0.1-2.4,0.4-3.6,0.6h12.7c2,0,4-0.2,5.8-0.7c-0.6-0.1-1.3-0.1-1.9-0.2C519.4,135.7,517.5,135.4,515.5,135.1z"/>
			<path class="st5" d="M488.1,133.7c0.4,0,0.7,0,1.1,0c0-0.1,0-0.2,0-0.3c-0.4,0-0.7,0-1.1,0C488.1,133.5,488.1,133.6,488.1,133.7z
				"/>
			<path class="st5" d="M493.8,133.8c-0.1,0.1-0.1,0.2-0.2,0.4c0.1,0.1,0.1,0.1,0.2,0.2c0.1-0.1,0.1-0.2,0.2-0.4
				C494,133.9,493.9,133.9,493.8,133.8z"/>
			<path class="st5" d="M486,135.3c0,0,0.1,0.1,0.2,0.2c0.1-0.1,0.1-0.2,0.2-0.4c-0.1-0.1-0.1-0.1-0.2-0.2
				C486.1,135,486,135.1,486,135.3z"/>
			<path class="st5" d="M482.7,134.7c0,0,0.1,0.1,0.2,0.2c0.1-0.1,0.1-0.2,0.2-0.4c-0.1-0.1-0.1-0.1-0.2-0.2
				C482.8,134.5,482.8,134.6,482.7,134.7z"/>
			<path class="st5" d="M498.3,136.9h0.9c-0.2-0.1-0.4-0.1-0.5-0.2C498.5,136.8,498.4,136.9,498.3,136.9z"/>
			<path class="st5" d="M509,118.8c0.1-0.1,0.2-0.3,0.3-0.4h-0.5C508.9,118.6,509,118.7,509,118.8z"/>
			<path class="st5" d="M469.5,134.3C469.5,134.3,469.5,134.3,469.5,134.3c0,0.3,0,0.7,0.1,1.1c0.4,0,0.7,0,1-0.1
				C470.4,135,470.2,134.7,469.5,134.3z"/>
			<path class="st5" d="M500.6,84.6c0.9-0.3,1.3-0.5,1.7-0.6c-0.1-0.1-0.2-0.2-0.3-0.3c0.5,0,1.1,0,1.5,0c1.1,2.2,2.2,4.3,3.3,6.4
				H533c0,0,0-0.1-0.1-0.1c0.1-0.1,0.2-0.1,0.4-0.2c0.1,0.1,0.1,0.1,0.2,0.2c0,0-0.1,0.1-0.1,0.1h2.6c0.4,0,0.7-0.2,1-0.5
				c0.3-0.3,0.4-0.7,0.4-1.1v-7.1c-0.2,0-0.3,0-0.5,0c0.2-0.1,0.4-0.2,0.5-0.3v-9.2c0-0.4-0.1-0.8-0.4-1.1c-0.3-0.3-0.6-0.5-1-0.5
				h-72.8c0.5,0.7,0.8,1.4,0.9,2.4c-0.7-0.7-1.3-1.4-2-2.1c-0.2,0.1-0.4,0.3-0.6,0.5c-0.5,0.5-0.8,1.1-0.8,1.7l0,4.1
				c0.1-0.1,0.2-0.2,0.2-0.3c1.1-1.1,2.4-2.1,3.6-3.2c-0.1-0.2-0.3-0.5-0.5-0.8c0.5,0.1,1,0.2,1.8,0.5c0.1-0.1,0.5-0.5,0.8-0.8
				c0,0.1,0.1,0.4,0.2,0.8c0.3-0.2,0.6-0.3,1.1-0.5c0.2,0.2,0.5,0.4,0.7,0.5c0.3-0.2,0.6-0.3,0.9-0.5c0.8-0.4,1.4,0.4,2.3,0.2
				c0.8-0.2,1.8,0.2,2.7,0.4c0.8,0.2,1.7,0.3,2.5,0.6c1.1,0.3,2,1,2.8,1.9c1.1,1.2,2.3,2.3,4.1,2.6c1.2,0.3,2.5,1.1,3.4,2.2
				c1.8,2.3,4.4,3.2,7.2,3.9c-1.2,0.9-2.1-0.2-3.1-0.2c-1.1,0-2-0.5-2.8-1.2c-0.6-0.6-1.2-1.1-1.7-1.8c-0.9-1.3-2.3-2.1-3.6-2.4
				c-1.7-0.4-2.8-1.3-3.9-2.5c-0.3-0.3-0.5-0.5-1-1c-0.2,0-0.9,0.2-1.1,0c-0.7-0.8-1.6-0.9-2.6-1.2c-1.3-0.3-2.4-0.7-3.7-0.5
				c-1.4,0.2-3-0.3-4.3,0.1c-1.5,0.5-3.5,0.4-4.1,2.6c-0.1,0.4-0.6,0.7-0.9,1c-0.4,0.4-0.7,0.7-1.1,1.1l0.4,49.9
				c0.7,0.2,1.4,0.6,2.1,1c0.1,0.1,0.4,0,0.5,0c0.2-0.2,0.4-0.4,0.6-0.5c1.6,1,3.1,2.4,4.8,3.1c2,0.8,3.9,2.4,6.2,1.9
				c0.1,0.2,0.2,0.3,0.2,0.3c0,0.1-0.1,0.1-0.2,0.2c-0.1,0.1-0.2,0.3-0.3,0.5c1.7,0.4,2.9-0.3,4.1-1.6c1.7,0.2,3.5-0.1,5.4,0.5
				c1.4,0.4,2.9-0.3,3.9-1.5c1.1,0.5,1.1,0.5,3,0.5c0.9-0.4,1.7-0.8,2.8-1.3c-0.3,0.7-0.5,1.2-0.8,1.9c1.5-0.1,2.9,0.3,4.1-0.6
				c0.7,0.4,1.3,0.7,2.1,1.2c0.2-0.1,0.5-0.3,0.9-0.5c0.7,0.2,1.5,0.4,2.3,0.7c0,0.4,0.1,0.8,0.2,1.4c0.7,0,1.3,0,2.2,0
				c-0.3-0.7-0.5-1.2-0.7-1.8c0.9-0.3,1.7-0.5,2.6-0.8c1,1.3,1.9-0.3,2.9-0.1c0.9,0.3,1.7,1.2,2.4,0.1c0.8,0.5,1.5,1,1.9,1.3
				c1.4-0.1,2.5-0.3,3.6-0.4c0.2-0.4,0.5-0.9,0.8-1.5c-0.4-0.8-0.8-1.6-1.3-2.6c-1.8-0.5-2.3-2.5-3.6-3.8c0.3-0.3,0.7-0.5,1-0.8
				c-0.3,0-0.5,0-1,0c0-0.6-0.1-1.2-0.2-2.2c-1.1-0.8-2.4-1.7-3.8-2.8c0-0.1,0-0.3,0-0.6c-0.2,0.1-0.5,0.2-0.9,0.4
				c-0.3-0.3-1.1-0.8-1.2-1.2c0-0.1,0-0.2,0-0.2h-22.4c-0.5,0-0.8-0.2-0.8-0.7v-3.9c0-0.4,0.3-0.7,0.8-0.7H504c0,0-0.1-0.1-0.2-0.1
				c0.4-0.2,0.7-0.5,1.1-0.7c0,0,0-0.1,0-0.1c0.1,0,0.2,0,0.3,0c0,0,0,0,0,0c-0.2-0.3-0.3-0.6-0.2-0.8c0.8-1.1,1.6-2.4,1.2-3.6
				c-0.4-1.4,0.3-2.8-0.6-4.2c-0.7-1.2,0.3-2.7,0.7-4c0.3-1-0.3-2.5,1.3-3c-0.4-0.6-0.8-1.2-1.1-1.8l-19.6-0.1c-1,0-1.7-0.2-2.2-0.7
				c-0.5-0.5-0.8-1.1-0.8-1.8c0-0.7,0.3-1.3,0.8-1.7c0.5-0.4,1.3-0.7,2.3-0.7h19c-0.5-0.4-1-0.8-1-1.2c0-1.5-1.9-1.8-1.8-3.3
				C503.3,84.8,502.1,84.8,500.6,84.6 M462.3,124.9c-0.1,0-0.2,0-0.3,0c-0.1-0.3-0.1-0.6-0.2-0.9c0.2,0,0.3,0,0.5-0.1
				C462.3,124.3,462.3,124.6,462.3,124.9z M466.9,75.9c0,0-0.1-0.1-0.2-0.2c0.1-0.1,0.2-0.1,0.4-0.2c0,0,0.1,0.1,0.2,0.2
				C467.2,75.7,467.1,75.8,466.9,75.9z M468.6,111.7c0,0-0.1-0.1-0.2-0.2c0.1-0.1,0.2-0.1,0.4-0.2c0,0,0.1,0.1,0.2,0.2
				C468.8,111.5,468.7,111.6,468.6,111.7z M469.6,116.9c0.3-0.1,0.6-0.1,0.9-0.2c0,0.2,0,0.3,0.1,0.5c-0.3,0-0.6,0-0.9,0
				C469.6,117.1,469.6,117,469.6,116.9z M470.2,118.3c-0.1-0.1-0.1-0.1-0.2-0.2c0.1-0.1,0.2-0.1,0.4-0.2c0,0,0.1,0.1,0.2,0.2
				C470.5,118.2,470.4,118.2,470.2,118.3z M471.5,119.4c-0.1-0.1-0.2-0.1-0.4-0.2c0.1-0.1,0.1-0.2,0.2-0.2c0.1,0,0.2,0.1,0.4,0.2
				C471.6,119.3,471.6,119.3,471.5,119.4z M472.5,117.8c-0.1-0.1-0.1-0.2-0.2-0.4c0,0,0.1-0.1,0.2-0.2c0.1,0.1,0.1,0.2,0.2,0.4
				C472.7,117.7,472.6,117.8,472.5,117.8z M473.6,119.4c-0.1-0.1-0.3-0.3-0.4-0.4c-0.1-0.1-0.3-0.3-0.4-0.4c0.1-0.1,0.1-0.1,0.2-0.2
				c0.1,0.1,0.3,0.3,0.4,0.4c0.1,0.1,0.3,0.3,0.4,0.4C473.8,119.3,473.7,119.4,473.6,119.4z M473.4,117.7c0-0.3,0-0.6,0-0.9
				c0.1,0,0.2,0,0.3,0c0.1,0.3,0.1,0.6,0.2,0.9C473.7,117.7,473.6,117.7,473.4,117.7z M480.1,91.9c-0.1-0.1-0.1-0.1-0.2-0.2
				c0.1-0.1,0.2-0.1,0.4-0.2c0,0,0.1,0.1,0.2,0.2C480.3,91.7,480.2,91.8,480.1,91.9z M495.5,107.9c-0.1-0.1-0.1-0.2-0.2-0.4
				c0.1-0.1,0.1-0.1,0.2-0.2c0.1,0.1,0.1,0.2,0.2,0.4C495.7,107.8,495.5,107.8,495.5,107.9z M499.3,105.7c0.1,0.1,0.2,0.1,0.2,0.2
				c0,0.1-0.1,0.2-0.2,0.4c-0.1-0.1-0.1-0.1-0.2-0.2C499.2,105.9,499.2,105.8,499.3,105.7z M498.1,110.2c0.1,0,0.2,0.1,0.4,0.2
				c-0.1,0.1-0.1,0.1-0.2,0.2c-0.1-0.1-0.2-0.1-0.4-0.2C498,110.3,498.1,110.2,498.1,110.2z M496.3,107.5c0.4,0,0.7,0,1.1,0
				c0,0.1,0,0.2,0,0.3c-0.4,0-0.7,0-1.1,0C496.3,107.7,496.3,107.6,496.3,107.5z M495.6,106.4c0,0,0.1,0.1,0.2,0.2
				c-0.1,0.1-0.2,0.1-0.4,0.2c-0.1-0.1-0.1-0.1-0.2-0.2C495.3,106.5,495.4,106.4,495.6,106.4z M509.7,88.6c-0.1-0.1-0.1-0.2-0.2-0.4
				c0,0,0.1-0.1,0.2-0.2c0.1,0.1,0.1,0.2,0.2,0.4C509.9,88.5,509.7,88.6,509.7,88.6z M529.4,88.1c-0.1-0.1-0.1-0.2-0.2-0.4
				c0,0,0.1-0.1,0.2-0.2c0.1,0.1,0.1,0.2,0.2,0.4C529.5,88,529.4,88,529.4,88.1z M532.7,86.4c0.1,0.1,0.1,0.2,0.2,0.4
				c0,0-0.1,0.1-0.2,0.2c-0.1-0.1-0.1-0.2-0.2-0.4C532.5,86.6,532.6,86.5,532.7,86.4z M531.5,86.9c0,0-0.1-0.1-0.2-0.2
				c0.1-0.1,0.2-0.1,0.4-0.2c0,0,0.1,0.1,0.2,0.2C531.7,86.8,531.6,86.8,531.5,86.9z M531.7,80.9c0,0.2,0,0.3,0,0.5
				c-0.5,0-1,0-1.5,0c0-0.1,0-0.2,0-0.3C530.7,81,531.2,81,531.7,80.9z M528.8,84.8c0.1,0.1,0.3,0.3,0.4,0.4
				c0.1,0.1,0.3,0.3,0.4,0.4c-0.1,0.1-0.1,0.1-0.2,0.2c-0.1-0.1-0.3-0.3-0.4-0.4c-0.1-0.1-0.3-0.3-0.4-0.4
				C528.7,84.9,528.7,84.9,528.8,84.8z M527.7,83.7c0.1,0.1,0.1,0.2,0.2,0.4c0,0-0.1,0.1-0.2,0.2c-0.1-0.1-0.1-0.2-0.2-0.4
				C527.6,83.8,527.7,83.7,527.7,83.7z M527.4,81.6c0,0.1,0,0.2,0,0.3c-0.3,0.1-0.6,0.1-0.9,0.2c0-0.2,0-0.3-0.1-0.5
				C526.8,81.6,527.1,81.6,527.4,81.6z M523,82.7c-1.4,0.6-2.8,0.3-4.2,0C520.2,82.7,521.6,82.7,523,82.7z M517.5,82.7
				c0,0.1,0,0.2,0,0.3c-0.7,0-1.3,0.1-2,0.1c0-0.2,0-0.3,0-0.5C516.2,82.7,516.8,82.7,517.5,82.7z M514.7,83.2c0,0,0.1,0.1,0.2,0.2
				c-0.1,0.1-0.2,0.1-0.4,0.2c0,0-0.1-0.1-0.2-0.2C514.5,83.3,514.6,83.3,514.7,83.2z M511,82.7c-0.8,0.6-1.7,0.4-2.5,0
				C509.3,82.7,510.1,82.7,511,82.7z M500.1,85c-0.1,0.1-0.1,0.1-0.2,0.2c-0.1-0.1-0.2-0.1-0.4-0.2 M499.6,85
				c0.1-0.1,0.1-0.2,0.2-0.2c0.1,0,0.2,0.1,0.4,0.2 M498.4,85.5c-2,0.5-2,0.5-3.3-0.8C496.4,85,497.4,85.3,498.4,85.5 M491.2,71.7
				c0,0,0.1,0.1,0.2,0.2c-0.1,0.1-0.2,0.1-0.4,0.2c0,0-0.1-0.1-0.2-0.2C490.9,71.8,491.1,71.7,491.2,71.7z M482.4,72.2
				c0.1,0.1,0.1,0.1,0.2,0.2c-0.1,0.1-0.2,0.1-0.4,0.2c0,0-0.1-0.1-0.2-0.2C482.2,72.3,482.3,72.2,482.4,72.2z"/>
			<path class="st5" d="M559.2,136c-0.4,0-0.7,0-1.1,0c0,0.2,0,0.4,0,0.6c0.4,0,0.7,0,1.1,0C559.2,136.4,559.2,136.2,559.2,136z"/>
			<path class="st5" d="M554.6,122.4c-0.8,0-1.5,0-2.2,0.3C553.6,123.6,553.7,123.4,554.6,122.4z"/>
			<path class="st5" d="M597.6,135.6c0.7-0.3,1.5-0.5,2.2-0.9c0-0.1,0-0.2,0-0.3c0.2,0,0.4,0,0.5,0c0.1-0.1,0.2-0.1,0.3-0.1
				c3.5-1.7,6.2-4.3,8.3-7.7c2.1-3.4,3.1-7.5,3.1-12.3c0-4.3-1-8.2-3.1-11.7c-2.1-3.5-4.9-6.2-8.4-8.2c-3.5-2-7.2-2.9-11.1-2.9
				l-21.6-0.1c-0.4,0-0.8-0.2-1.1-0.5c-0.3-0.3-0.4-0.6-0.4-1.1V72c0-0.4-0.2-0.8-0.5-1.1c-0.3-0.3-0.7-0.5-1.1-0.5h-19.3
				c-0.4,0-0.8,0.1-1.1,0.4c-0.3,0.3-0.5,0.7-0.5,1.2v9.6c0,0,0.1,0,0.1,0c0,0.1,0,0.2,0,0.3c0,0-0.1,0-0.1,0v44.7
				c1.1,0.3,2.9-0.4,4.6-1.7c0,0.8,0.1,1.5,0.2,2.2c0.4-0.3,0.3-0.7,0.4-1c0.1-0.4,0.3-0.7,0.5-1.1c-0.3,0-0.5-0.1-1.1-0.1
				c0-0.2,0-0.5,0-0.7c1.4-1,2.7-2,4.1-3c1.8,0,3.8,0,5.7,0c0,0.1,0,0.2,0,0.3c-0.8,0.1-1.7,0.1-2.6,0.2c0,0.4,0,0.8,0,1.4
				c0.3,0.1,0.6,0.3,1.3,0.6c-1.7,0-3,0-4.2,0c-1.3,1-2.2,2.1-2.7,3.4c-0.4,1-1.1,1.8-2.4,1.7c-0.5,0-1,0.3-1.4,0.5
				c-0.8,0.5-1.8,0.6-2.5,1.2v4.6c0,0.4,0.2,0.8,0.5,1.1c0.3,0.3,0.7,0.5,1.1,0.5h13.1c-0.1-0.1-0.2-0.2-0.3-0.4
				c-0.2-0.1-0.3-0.2-0.5-0.4c0.2-0.1,0.3-0.1,0.5-0.2c0.2-0.2,0.5-0.4,0.7-0.6c0.1,0.2,0.3,0.4,0.4,0.6c0,0,0,0,0,0
				c0.2,0.1,0.3,0.2,0.5,0.4c-0.2,0.1-0.3,0.1-0.5,0.2c-0.1,0.1-0.3,0.2-0.4,0.4h30.6c0.7,0,1.5,0,2.2-0.1c0-0.1-0.1-0.1-0.1-0.2
				c-0.3-0.7,0.6-1.7-0.5-2.3c0,0,0,0,0,0c-0.1,0.2-0.3,0.3-0.4,0.5c-0.1-0.1-0.1-0.1-0.2-0.2c0.1-0.1,0.3-0.3,0.4-0.4
				c0,0,0,0,0,0.1c0-0.3,0-0.7,0-1c-0.5-0.1-0.8-0.1-1-0.2c0.2-0.4,0.4-0.7,0.5-1.1c0.1-0.3,0.1-0.6,0.4-1c0.1,0.7,0.1,1.4,0.2,2.2
				c0.5,0.5,1.1,1.1,1.6,1.6c-0.2,0.1-0.3,0.1-0.5,0.2c0.2,0.1,0.3,0.2,0.5,0.4c0-0.2,0-0.4,0-0.6c0.8-0.1,1.3,0.2,1.7,1.2
				c-0.7-0.3-1.2-0.5-1.7-0.7c0,0.4,0,0.8,0,1.3c0.7-0.1,1.3-0.2,2-0.3c0.1-0.3,0.2-0.5,0.3-0.8
				C595.8,135.6,596.7,135.6,597.6,135.6z M609.8,115.1c0.1,0.1,0.1,0.2,0.2,0.4c-0.1,0.1-0.1,0.1-0.2,0.2c-0.1-0.1-0.1-0.2-0.2-0.4
				C609.6,115.2,609.7,115.1,609.8,115.1z M607.6,119.5c0.1,0.1,0.1,0.1,0.2,0.2c-0.1,0.1-0.1,0.2-0.2,0.4c-0.1-0.1-0.2-0.1-0.2-0.2
				C607.4,119.7,607.5,119.6,607.6,119.5z M603.2,131.6c-0.1-0.1-0.1-0.2-0.2-0.4c0,0,0.1-0.1,0.2-0.2c0.1,0.1,0.1,0.2,0.2,0.4
				C603.4,131.5,603.3,131.5,603.2,131.6z M603.7,130.5c-0.1-0.1-0.1-0.2-0.2-0.4c0,0,0.1-0.1,0.2-0.2c0.1,0.1,0.1,0.2,0.2,0.4
				C603.9,130.4,603.8,130.4,603.7,130.5z M603.8,127.8c0.1,0.1,0.1,0.1,0.2,0.2c-0.1,0.1-0.3,0.3-0.4,0.4c-0.1,0.1-0.3,0.3-0.4,0.4
				c-0.1-0.1-0.1-0.1-0.2-0.2c0.1-0.1,0.3-0.3,0.4-0.4C603.5,128.1,603.7,127.9,603.8,127.8z M544.6,81.5c0-0.2,0-0.3-0.1-0.5
				c0.3,0,0.6,0,0.9,0c0,0.1,0,0.2,0,0.3C545.1,81.3,544.9,81.4,544.6,81.5z M546.3,80.9c-0.1-0.1-0.1-0.2-0.2-0.4
				c0.1-0.1,0.1-0.1,0.2-0.2c0.1,0.1,0.1,0.2,0.2,0.4C546.5,80.8,546.4,80.9,546.3,80.9z M548.5,79.8c-0.1-0.1-0.1-0.2-0.2-0.4
				c0,0,0.1-0.1,0.2-0.2c0.1,0.1,0.1,0.2,0.2,0.4C548.7,79.7,548.6,79.8,548.5,79.8z M557.3,124.4c-0.1-0.1-0.1-0.2-0.2-0.4
				c0.1-0.1,0.1-0.1,0.2-0.2c0.1,0.1,0.1,0.2,0.2,0.4C557.4,124.3,557.3,124.4,557.3,124.4z M589.7,126.2c0,0.5,0,1,0,1.5
				c-0.1,0-0.2,0-0.3,0c-0.1-0.5-0.1-1-0.2-1.5C589.4,126.2,589.5,126.2,589.7,126.2z M577.5,95.2c0.1,0.1,0.1,0.2,0.2,0.4
				c0,0-0.1,0.1-0.2,0.2c-0.1-0.1-0.1-0.2-0.2-0.4C577.4,95.4,577.4,95.3,577.5,95.2z M562.7,108.5c0.1,0.1,0.1,0.1,0.2,0.2
				c-0.1,0.1-0.1,0.2-0.2,0.4c-0.1-0.1-0.2-0.1-0.2-0.2C562.6,108.7,562.7,108.6,562.7,108.5z M561.6,88.1c0.1,0.1,0.1,0.2,0.2,0.4
				c0,0-0.1,0.1-0.2,0.2c-0.1-0.1-0.1-0.2-0.2-0.4C561.5,88.2,561.6,88.1,561.6,88.1z M561.6,112.3c0.1,0.1,0.1,0.2,0.2,0.4
				c0,0-0.1,0.1-0.2,0.2c-0.1-0.1-0.1-0.2-0.2-0.4C561.5,112.4,561.6,112.4,561.6,112.3z M560.4,88.1c0.1,0,0.2,0,0.3,0
				c0,0.7,0,1.5,0,2.2c-0.1,0-0.2,0-0.3,0C560.4,89.5,560.4,88.8,560.4,88.1z M560.4,92c0.1,0,0.2,0,0.3,0c0.1,0.5,0.1,1,0.2,1.5
				c-0.2,0-0.3,0-0.5,0C560.4,93,560.4,92.5,560.4,92z M560.6,94.8c0,0,0.1,0.1,0.2,0.2c-0.1,0.1-0.2,0.1-0.4,0.2
				c0,0-0.1-0.1-0.2-0.2C560.4,94.9,560.5,94.8,560.6,94.8z M561.4,95.7c-0.3,0.5-0.5,0.8-0.5,1.1c-0.1,0.4-0.1,0.8-0.1,1.2
				c-0.1,0-0.2,0-0.4,0c0-0.7-0.1-1.3-0.1-2.1C560.6,95.9,560.8,95.8,561.4,95.7z M561.3,98.9c0,0-0.1,0.1-0.2,0.2
				c-0.1-0.1-0.1-0.2-0.2-0.4c0,0,0.1-0.1,0.2-0.2C561.1,98.7,561.2,98.8,561.3,98.9z M559.8,114.1c0.1,0,0.2,0,0.3,0
				c0.1,0.3,0.1,0.6,0.2,0.9c-0.2,0-0.3,0-0.5,0.1C559.8,114.7,559.8,114.4,559.8,114.1z M558.9,121.2c0.7,0.1,1.5-0.5,2.1,0.4
				c-0.8,0-1.5,0-2.2,0C558.8,121.4,558.8,121.2,558.9,121.2z M558.8,124.4c0-0.2,0-0.3,0-0.5c0.3,0,0.6,0,0.9,0c0,0.1,0,0.2,0,0.3
				C559.4,124.3,559.1,124.4,558.8,124.4z M560.8,121.9c0.3-0.1,0.5-0.2,0.8-0.2c0.1,0,0.2,0.2,0.6,0.6
				C561.5,122.1,561.1,122,560.8,121.9z M565.3,127.2c-0.2,0-0.5-0.3-0.7-0.5c0.4-0.2,0.7-0.4,1.1-0.6
				C565.7,126.5,566,127.1,565.3,127.2z M567.2,127.7c-0.1-0.1-0.3-0.3-0.4-0.4c-0.1-0.1-0.3-0.3-0.4-0.4c0.1-0.1,0.1-0.1,0.2-0.2
				c0.1,0.1,0.3,0.3,0.4,0.4c0.1,0.1,0.3,0.3,0.4,0.4C567.3,127.6,567.2,127.6,567.2,127.7z M565.7,126.1c-0.2-0.2-0.5-0.5-0.7-0.5
				c-0.7,0.1-0.3,0.7-0.4,1.1c-0.4,0.2-0.7,0.4-1.4,0.7c-0.2-0.4-0.3-0.8-0.5-1.2c0,0,0.3-0.1,0.6-0.2c0.6-0.8-0.1-1.4-0.3-2.1
				c0,0,0,0-0.1,0.1c-0.1-0.1-0.3-0.3-0.4-0.4c0.1-0.1,0.1-0.1,0.2-0.2c0.1,0.1,0.3,0.3,0.4,0.4c0,0,0,0-0.1,0.1
				c1.6,0.6,3.2,1.2,4.9,1.8c0,0.1,0,0.2,0,0.3C567.2,126,566.5,126.1,565.7,126.1z M569.8,127.7c-0.1-0.1-0.1-0.1-0.2-0.2
				c0.1-0.1,0.2-0.1,0.4-0.2c0,0,0.1,0.1,0.2,0.2C570,127.5,569.9,127.6,569.8,127.7z M569.7,126c0-0.3,0-0.6,0-0.9
				c0.1,0,0.2,0,0.3,0c0.1,0.3,0.1,0.6,0.2,0.9C570,126,569.8,126,569.7,126z M575.6,132c-0.4,0-0.7,0-1.1,0c0-0.1,0-0.2,0-0.3
				c0.4,0,0.7,0,1.1,0C575.6,131.8,575.6,131.9,575.6,132z M573.9,129.8c0-0.1,0-0.2,0-0.3c0.4,0,0.7,0,1.1,0c0,0.1,0,0.2,0,0.3
				C574.7,129.8,574.3,129.8,573.9,129.8z M578.3,132.6c-0.4,0-0.7,0-1.1,0c0-0.1,0-0.2,0-0.3c0.4,0,0.7,0,1.1,0
				C578.3,132.4,578.3,132.5,578.3,132.6z M576.3,130.3c1.6-0.8,2.4,0.1,3.3,0.6c0.9,0.4,1.8,0.7,3,1.2
				C580,132.4,578.5,131,576.3,130.3z M579.7,133.2c0.7,0.2,1,0.3,1.3,0.4c-0.3,0.1-0.5,0.2-0.8,0.2
				C580.2,133.8,580.1,133.6,579.7,133.2z M581,134c0.3-0.1,0.5-0.2,0.8-0.2c0.1,0,0.2,0.2,0.6,0.6C581.7,134.2,581.4,134.1,581,134
				z M582.1,132.4c0.3-0.1,0.5-0.2,0.8-0.2c0.1,0,0.2,0.2,0.6,0.6C582.8,132.6,582.5,132.5,582.1,132.4z M586.5,134.8
				c-0.7,0-1.5,0-2.2,0c0-0.1,0-0.2,0-0.3c0.7,0,1.5,0,2.2,0C586.5,134.6,586.5,134.7,586.5,134.8z M585.5,133.1
				c0-0.1,0.1-0.2,0.2-0.4c0.1,0.1,0.1,0.1,0.2,0.2c-0.1,0.1-0.1,0.2-0.2,0.4C585.6,133.2,585.5,133.1,585.5,133.1z M587.3,134.9
				c-0.1-0.1-0.1-0.2-0.2-0.4c0.1-0.1,0.1-0.1,0.2-0.2c0.1,0.1,0.1,0.2,0.2,0.4C587.5,134.8,587.4,134.8,587.3,134.9z M585.7,116.2
				h-17.5c-0.4,0-0.7-0.1-0.9-0.3c-0.3-0.3-0.4-0.5-0.4-0.7V112c0-0.2,0.1-0.4,0.4-0.7c0.2-0.2,0.5-0.3,0.9-0.3l17.5,0.1
				c1,0,1.7,0.2,2.2,0.7c0.5,0.5,0.8,1.1,0.8,1.9c0,0.7-0.3,1.3-0.8,1.8C587.5,115.9,586.7,116.2,585.7,116.2z M589.2,124
				c0,0.5,0,1,0,1.5c-0.1,0-0.2,0-0.3,0c-0.1-0.5-0.1-1-0.2-1.4C588.8,124,589,124,589.2,124z M589.2,133c-0.1,0.1-0.1,0.1-0.2,0.2
				c-0.1-0.1-0.1-0.2-0.2-0.4c0,0,0.1-0.1,0.2-0.2C589,132.8,589.1,132.9,589.2,133z M588.8,134.9c0-0.2,0-0.3,0-0.5
				c0.3,0,0.6,0,0.9,0c0,0.1,0,0.2,0,0.3C589.4,134.8,589.1,134.8,588.8,134.9z M590.2,129.9c-0.1,0-0.2,0-0.3,0
				c-0.1-0.5-0.1-1-0.2-1.5c0.2,0,0.3,0,0.5,0C590.2,128.9,590.2,129.4,590.2,129.9z"/>
			<path class="st5" d="M551.7,123.3c0.1-0.1,0.2-0.2,0.2-0.5c-0.1,0.1-0.2,0.2-0.3,0.3C551.6,123.2,551.7,123.2,551.7,123.3z"/>
			<path class="st5" d="M544.1,129.6c0.3-0.8,0.6-1.3,0.8-1.8c-0.1-0.1-0.2-0.2-0.4-0.2c-0.3,0.3-0.6,0.5-0.9,0.8v0.9
				C543.8,129.4,543.9,129.5,544.1,129.6z"/>
		</g>
	</g>
</g>
</svg>
